<?xml version="1.0" standalone="no"?>
<!DOCTYPE svg PUBLIC "-//W3C//DTD SVG 1.1//EN" "http://www.w3.org/Graphics/SVG/1.1/DTD/svg11.dtd" >
<svg xmlns="http://www.w3.org/2000/svg">
<metadata>Generated by IcoMoon</metadata>
<defs>
<font id="hatch-interface" horiz-adv-x="512">
<font-face units-per-em="512" ascent="480" descent="-32" />
<missing-glyph horiz-adv-x="512" />
<glyph unicode="&#x20;" d="" horiz-adv-x="256" />
<glyph unicode="&#xe600;" d="M445.757 224.606c0.135-6.401-2.262-12.876-7.187-17.8l-101.375-101.375c-9.497-9.497-24.728-9.662-34.165-0.224-9.373 9.373-9.283 24.659 0.224 34.165l85.546 85.546-85.546 85.546c-9.497 9.497-9.662 24.728-0.224 34.165 9.373 9.372 24.659 9.282 34.165-0.224l101.375-101.375c5.087-5.087 7.496-11.819 7.187-18.424zM66.243 224.606v0c-0.309 6.606 2.1 13.338 7.186 18.424l101.375 101.375c9.506 9.507 24.792 9.597 34.165 0.224 9.438-9.438 9.272-24.669-0.224-34.165l-85.546-85.546 85.546-85.546c9.506-9.507 9.596-24.793 0.224-34.165-9.438-9.438-24.669-9.272-34.165 0.224l-101.375 101.375c-4.924 4.925-7.322 11.399-7.186 17.8zM63.81 480c-35.242 0-63.81-28.625-63.81-63.81v-384.38c0-35.242 28.625-63.81 63.81-63.81h384.38c35.242 0 63.81 28.625 63.81 63.81v384.38c0 35.242-28.625 63.81-63.81 63.81h-384.38z" />
<glyph unicode="&#xe601;" d="M224 237.726l-36.562-36.562c-12.381-12.382-32.463-12.375-45.046 0.209-12.497 12.497-12.423 32.832-0.208 45.046l90.927 90.927c10.746 10.746 27.291 12.161 39.701 4.12 2.683-1.419 5.191-3.249 7.428-5.486l90.927-90.927c12.382-12.381 12.375-32.462-0.209-45.046-12.497-12.497-32.832-12.423-45.046-0.209l-37.911 37.911v-235.442c108.553 15.527 192 108.885 192 221.732 0 123.712-100.288 224-224 224s-224-100.288-224-224c0-112.847 83.447-206.204 192-221.731v235.458zM512 224c0-141.385-114.615-256-256-256s-256 114.615-256 256c0 141.385 114.615 256 256 256s256-114.615 256-256z" />
<glyph unicode="&#xe602;" d="M288 210.274l36.562 36.562c12.382 12.381 32.462 12.375 45.046-0.208 12.497-12.497 12.423-32.832 0.209-45.046l-90.927-90.927c-10.746-10.746-27.291-12.161-39.701-4.12-2.683 1.42-5.191 3.249-7.428 5.486l-90.927 90.927c-12.381 12.382-12.375 32.463 0.208 45.046 12.497 12.497 32.832 12.423 45.046 0.208l37.911-37.911v235.442c-108.553-15.528-192-108.885-192-221.732 0-123.712 100.288-224 224-224s224 100.288 224 224c0 112.847-83.447 206.204-192 221.731v-235.457zM0 224c0 141.385 114.615 256 256 256s256-114.615 256-256c0-141.385-114.615-256-256-256s-256 114.615-256 256z" />
<glyph unicode="&#xe603;" d="M242.274 256l36.562 36.562c12.382 12.381 12.375 32.462-0.209 45.046-12.497 12.497-32.832 12.423-45.046 0.209l-90.927-90.927c-10.746-10.746-12.161-27.291-4.12-39.701 1.419-2.683 3.249-5.191 5.486-7.428l90.927-90.927c12.381-12.382 32.462-12.375 45.046 0.209 12.497 12.497 12.423 32.832 0.209 45.046l-37.911 37.911h235.442c-15.527-108.553-108.885-192-221.732-192-123.712 0-224 100.288-224 224s100.288 224 224 224c112.847 0 206.204-83.447 221.731-192h-235.458zM256-32c141.385 0 256 114.615 256 256s-114.615 256-256 256c-141.385 0-256-114.615-256-256s114.615-256 256-256z" />
<glyph unicode="&#xe604;" d="M269.726 256l-36.562 36.562c-12.381 12.381-12.375 32.462 0.208 45.046 12.497 12.497 32.832 12.423 45.046 0.209l90.927-90.927c10.746-10.746 12.161-27.291 4.12-39.701-1.42-2.683-3.249-5.191-5.486-7.428l-90.927-90.927c-12.382-12.382-32.463-12.375-45.046 0.209-12.497 12.497-12.423 32.832-0.208 45.046l37.911 37.911h-235.442c15.528-108.553 108.885-192 221.732-192 123.712 0 224 100.288 224 224s-100.288 224-224 224c-112.847 0-206.204-83.447-221.732-192h235.458zM256-32c-141.385 0-256 114.615-256 256s114.615 256 256 256c141.385 0 256-114.615 256-256s-114.615-256-256-256z" />
<glyph unicode="&#xe605;" d="M32 162.274v253.507c0 17.82 14.425 32.219 32.219 32.219h383.562c17.82 0 32.219-14.425 32.219-32.219v-298.762l-73.44 73.44c-12.459 12.459-32.812 12.309-45.12 0l-50.813-50.813-128.104 128.104c-12.44 12.44-32.834 12.213-45.047 0l-105.477-105.476zM384 288c35.346 0 64 28.654 64 64s-28.654 64-64 64c-35.346 0-64-28.654-64-64s28.654-64 64-64zM63.81 480c-35.242 0-63.81-28.625-63.81-63.81v-384.38c0-35.242 28.625-63.81 63.81-63.81h384.38c35.242 0 63.81 28.625 63.81 63.81v384.38c0 35.242-28.625 63.81-63.81 63.81h-384.38z" />
<glyph unicode="&#xe606;" d="M32 480h64c17.673 0 32-14.327 32-32v-448c0-17.673-14.327-32-32-32h-64c-17.673 0-32 14.327-32 32v448c0 17.673 14.327 32 32 32zM416 480h64c17.673 0 32-14.327 32-32v-448c0-17.673-14.327-32-32-32h-64c-17.673 0-32 14.327-32 32v448c0 17.673 14.327 32 32 32zM224 480h64c17.673 0 32-14.327 32-32v-448c0-17.673-14.327-32-32-32h-64c-17.673 0-32 14.327-32 32v448c0 17.673 14.327 32 32 32z" />
<glyph unicode="&#xe607;" d="M32.028 480c-17.689 0-32.028-14.188-32.028-32.3v-63.401c0-17.838 14.228-32.3 32.028-32.3h447.944c17.688 0 32.028 14.188 32.028 32.3v63.4c0 17.839-14.228 32.3-32.028 32.3h-447.944zM32.028 96c-17.689 0-32.028-14.188-32.028-32.3v-63.401c0-17.839 14.228-32.3 32.028-32.3h447.944c17.688 0 32.028 14.188 32.028 32.3v63.401c0 17.839-14.228 32.3-32.028 32.3h-447.944zM32.028 288c-17.689 0-32.028-14.188-32.028-32.3v-63.401c0-17.839 14.228-32.3 32.028-32.3h447.944c17.688 0 32.028 14.188 32.028 32.3v63.4c0 17.839-14.228 32.3-32.028 32.3h-447.944z" />
<glyph unicode="&#xe608;" d="M32.3 480c-17.838 0-32.3-14.188-32.3-32.3v-63.401c0-17.838 14.188-32.3 32.3-32.3h63.401c17.838 0 32.3 14.188 32.3 32.3v63.4c0 17.839-14.188 32.3-32.3 32.3h-63.401zM32.3 288c-17.838 0-32.3-14.188-32.3-32.3v-63.401c0-17.839 14.188-32.3 32.3-32.3h63.401c17.838 0 32.3 14.188 32.3 32.3v63.4c0 17.839-14.188 32.3-32.3 32.3h-63.401zM32.3 96c-17.838 0-32.3-14.188-32.3-32.3v-63.401c0-17.839 14.188-32.3 32.3-32.3h63.401c17.838 0 32.3 14.188 32.3 32.3v63.401c0 17.839-14.188 32.3-32.3 32.3h-63.401zM224.3 480c-17.839 0-32.3-14.188-32.3-32.3v-63.401c0-17.838 14.188-32.3 32.3-32.3h63.401c17.839 0 32.3 14.188 32.3 32.3v63.4c0 17.839-14.188 32.3-32.3 32.3h-63.4zM224.3 288c-17.839 0-32.3-14.188-32.3-32.3v-63.401c0-17.839 14.188-32.3 32.3-32.3h63.401c17.839 0 32.3 14.188 32.3 32.3v63.4c0 17.839-14.188 32.3-32.3 32.3h-63.4zM224.3 96c-17.839 0-32.3-14.188-32.3-32.3v-63.401c0-17.839 14.188-32.3 32.3-32.3h63.401c17.839 0 32.3 14.188 32.3 32.3v63.401c0 17.839-14.188 32.3-32.3 32.3h-63.4zM416.3 480c-17.839 0-32.3-14.188-32.3-32.3v-63.401c0-17.838 14.188-32.3 32.3-32.3h63.401c17.839 0 32.3 14.188 32.3 32.3v63.4c0 17.839-14.188 32.3-32.3 32.3h-63.401zM416.3 288c-17.839 0-32.3-14.188-32.3-32.3v-63.401c0-17.839 14.188-32.3 32.3-32.3h63.401c17.839 0 32.3 14.188 32.3 32.3v63.4c0 17.839-14.188 32.3-32.3 32.3h-63.401zM416.3 96c-17.839 0-32.3-14.188-32.3-32.3v-63.401c0-17.839 14.188-32.3 32.3-32.3h63.401c17.839 0 32.3 14.188 32.3 32.3v63.401c0 17.839-14.188 32.3-32.3 32.3h-63.401z" />
<glyph unicode="&#xe609;" d="M32.3 480c-17.838 0-32.3-14.188-32.3-32.3v-63.401c0-17.838 14.188-32.3 32.3-32.3h63.401c17.838 0 32.3 14.188 32.3 32.3v63.4c0 17.839-14.188 32.3-32.3 32.3h-63.401zM32.3 288c-17.838 0-32.3-14.582-32.3-31.852v-256.295c0-17.592 14.188-31.853 32.3-31.853h63.401c17.838 0 32.3 14.582 32.3 31.853v256.295c0 17.592-14.188 31.853-32.3 31.853h-63.401zM416.3 480c-17.839 0-32.3-14.431-32.3-31.705v-128.59c0-17.51 14.188-31.705 32.3-31.705h63.401c17.839 0 32.3 14.431 32.3 31.705v128.59c0 17.51-14.188 31.705-32.3 31.705h-63.401zM416.3 224c-17.839 0-32.3-14.497-32.3-31.905v-192.19c0-17.62 14.188-31.905 32.3-31.905h63.401c17.839 0 32.3 14.497 32.3 31.905v192.19c0 17.62-14.188 31.905-32.3 31.905h-63.401zM224.3 480c-17.839 0-32.3-14.497-32.3-31.905v-192.19c0-17.62 14.188-31.905 32.3-31.905h63.401c17.839 0 32.3 14.497 32.3 31.905v192.19c0 17.62-14.188 31.905-32.3 31.905h-63.4zM224.3 160c-17.839 0-32.3-14.431-32.3-31.705v-128.59c0-17.51 14.188-31.705 32.3-31.705h63.401c17.839 0 32.3 14.431 32.3 31.705v128.59c0 17.51-14.188 31.705-32.3 31.705h-63.4z" />
<glyph unicode="&#xe60a;" d="M0 228.032c0 0 73.063 187.968 257.99 187.968s254.010-190.778 254.010-190.778c0 0-69.288-193.222-254.112-193.222s-257.888 196.032-257.888 196.032zM256 64c88.365 0 160 71.635 160 160s-71.635 160-160 160c-88.365 0-160-71.635-160-160s71.635-160 160-160zM256 160c35.346 0 64 28.654 64 64s-28.654 64-64 64c-35.346 0-64-28.654-64-64s28.654-64 64-64z" />
<glyph unicode="&#xe60b;" d="M63.81 480h384.38c35.185 0 63.81-28.568 63.81-63.81v-384.38c0-35.185-28.568-63.81-63.81-63.81h-384.38c-35.185 0-63.81 28.568-63.81 63.81v384.38c0 35.185 28.569 63.81 63.81 63.81zM191.852 448c-17.592 0-31.852-14.399-31.852-32.219v-383.562c0-17.794 14.582-32.219 31.852-32.219h256.295c17.592 0 31.853 14.399 31.853 32.219v383.562c0 17.794-14.582 32.219-31.853 32.219h-256.295zM400.288 384c8.678 0 15.712-7.422 15.712-16 0-8.837-7.292-16-15.712-16h-160.576c-8.678 0-15.712 7.422-15.712 16 0 8.837 7.292 16 15.712 16h160.576zM336.305 320c8.668 0 15.695-7.422 15.695-16 0-8.837-6.882-16-15.695-16h-96.609c-8.668 0-15.696 7.422-15.696 16 0 8.837 6.882 16 15.696 16h96.609zM400.288 256c8.678 0 15.712-7.422 15.712-16 0-8.837-7.292-16-15.712-16h-160.576c-8.678 0-15.712 7.422-15.712 16 0 8.837 7.292 16 15.712 16h160.576z" />
<glyph unicode="&#xe60c;" d="M63.81 480h384.38c35.185 0 63.81-28.568 63.81-63.81v-384.38c0-35.185-28.568-63.81-63.81-63.81h-384.38c-35.185 0-63.81 28.568-63.81 63.81v384.38c0 35.185 28.569 63.81 63.81 63.81zM63.852 448c-17.592 0-31.852-14.399-31.852-32.219v-383.562c0-17.794 14.581-32.219 31.852-32.219h256.295c17.592 0 31.853 14.399 31.853 32.219v383.562c0 17.794-14.582 32.219-31.853 32.219h-256.295zM272.288 384c8.678 0 15.712-7.422 15.712-16 0-8.837-7.292-16-15.712-16h-160.576c-8.677 0-15.712 7.422-15.712 16 0 8.837 7.292 16 15.712 16h160.576zM208.304 320c8.668 0 15.696-7.422 15.696-16 0-8.837-6.882-16-15.696-16h-96.609c-8.668 0-15.695 7.422-15.695 16 0 8.837 6.882 16 15.695 16h96.609zM272.288 256c8.678 0 15.712-7.422 15.712-16 0-8.837-7.292-16-15.712-16h-160.576c-8.677 0-15.712 7.422-15.712 16 0 8.837 7.292 16 15.712 16h160.576z" />
<glyph unicode="&#xe60d;" d="M63.81 480h384.38c35.185 0 63.81-28.568 63.81-63.81v-384.38c0-35.185-28.568-63.81-63.81-63.81h-384.38c-35.185 0-63.81 28.568-63.81 63.81v384.38c0 35.185 28.569 63.81 63.81 63.81zM64.219 288c-17.794 0-32.219-14.282-32.219-31.922v-224.157c0-17.63 14.398-31.921 32.219-31.921h383.562c17.794 0 32.219 14.282 32.219 31.921v224.157c0 17.63-14.399 31.922-32.219 31.922h-383.562zM367.986 224c8.844 0 16.014-7.422 16.014-16 0-8.837-7.385-16-16.014-16h-223.972c-8.845 0-16.014 7.422-16.014 16 0 8.837 7.385 16 16.014 16h223.972zM335.89 160c8.897 0 16.11-7.422 16.11-16 0-8.837-7.453-16-16.11-16h-191.781c-8.897 0-16.109 7.422-16.109 16 0 8.837 7.453 16 16.109 16h191.781zM367.986 96c8.844 0 16.014-7.422 16.014-16 0-8.837-7.385-16-16.014-16h-223.972c-8.845 0-16.014 7.422-16.014 16 0 8.837 7.385 16 16.014 16h223.972z" />
<glyph unicode="&#xe60e;" d="M31.905 352c-17.62 0-31.905-14.497-31.905-31.905v-192.19c0-17.62 14.497-31.905 31.905-31.905h192.19c17.62 0 31.905 14.497 31.905 31.905v192.19c0 17.62-14.497 31.905-31.905 31.905h-192.19zM335.712 288c-8.678 0-15.712-7.422-15.712-16 0-8.837 7.292-16 15.712-16h160.576c8.678 0 15.712 7.422 15.712 16 0 8.837-7.292 16-15.712 16h-160.576zM335.695 224c-8.668 0-15.695-7.422-15.695-16 0-8.837 6.882-16 15.695-16h96.609c8.668 0 15.695 7.422 15.695 16 0 8.837-6.882 16-15.695 16h-96.61z" />
<glyph unicode="&#xe60f;" d="M480.095 352c17.62 0 31.905-14.497 31.905-31.905v-192.19c0-17.62-14.497-31.905-31.905-31.905h-192.19c-17.62 0-31.905 14.497-31.905 31.905v192.19c0 17.62 14.497 31.905 31.905 31.905h192.19zM176.288 288c8.678 0 15.712-7.422 15.712-16 0-8.837-7.292-16-15.712-16h-160.576c-8.678 0-15.712 7.422-15.712 16 0 8.837 7.292 16 15.712 16h160.576zM112.305 224c8.668 0 15.695-7.422 15.695-16 0-8.837-6.882-16-15.695-16h-96.609c-8.668 0-15.695 7.422-15.695 16 0 8.837 6.882 16 15.695 16h96.609z" />
<glyph unicode="&#xe610;" d="M352.095 416c17.62 0 31.905-14.497 31.905-31.905v-192.19c0-17.62-14.497-31.905-31.905-31.905h-192.19c-17.62 0-31.905 14.497-31.905 31.905v192.19c0 17.62 14.497 31.905 31.905 31.905h192.19zM336.288 128c8.678 0 15.712-7.422 15.712-16v0c0-8.837-7.292-16-15.712-16h-160.576c-8.678 0-15.712 7.422-15.712 16v0c0 8.837 7.292 16 15.712 16h160.576zM304.305 64c8.668 0 15.695-7.422 15.695-16v0c0-8.837-6.882-16-15.695-16h-96.609c-8.668 0-15.696 7.422-15.696 16v0c0 8.837 6.882 16 15.696 16h96.609z" />
<glyph unicode="&#xe611;" d="M497.329 309.629c-25.728 72.508-83.209 129.984-155.72 155.707v0l-44.589-200.221 200.309 44.513zM497.336 138.392c-25.725-72.518-83.209-130.002-155.728-155.728v0l-44.616 200.344 200.344-44.616zM170.371 465.329c-72.501-25.726-129.974-83.199-155.7-155.7v0l200.185-44.486-44.486 200.185zM170.371-17.329c-72.508 25.728-129.984 83.209-155.708 155.72l200.22 44.589-44.513-200.309zM256 96c70.692 0 128 57.308 128 128s-57.308 128-128 128c-70.692 0-128-57.308-128-128s57.308-128 128-128zM256-32c-141.385 0-256 114.615-256 256s114.615 256 256 256c141.385 0 256-114.615 256-256s-114.615-256-256-256zM256 0c123.712 0 224 100.288 224 224s-100.288 224-224 224c-123.712 0-224-100.288-224-224s100.288-224 224-224z" />
<glyph unicode="&#xe612;" d="M224 223.998v223.974c0 17.8 14.327 32.028 32 32.028 17.796 0 32-14.34 32-32.028v-223.974c17.969-0.156 32-14.29 32-31.704v-128.59c0-17.177-14.3-31.543-32-31.704v-31.974c0-17.8-14.327-32.028-32-32.028-17.797 0-32 14.339-32 32.028v31.974c-17.969 0.156-32 14.29-32 31.704v128.59c0 17.177 14.299 31.543 32 31.704v0zM32 415.999v31.973c0 17.8 14.327 32.028 32 32.028 17.797 0 32-14.339 32-32.028v-31.973c17.969-0.156 32-14.29 32-31.704v-128.59c0-17.177-14.299-31.543-32-31.703v-223.974c0-17.8-14.327-32.028-32-32.028-17.797 0-32 14.339-32 32.028v223.974c-17.969 0.155-32 14.29-32 31.703v128.59c0 17.177 14.3 31.543 32 31.704v0zM416 415.999v31.973c0 17.8 14.327 32.028 32 32.028 17.796 0 32-14.339 32-32.028v-31.973c17.969-0.156 32-14.29 32-31.704v-128.59c0-17.177-14.3-31.543-32-31.703v-223.974c0-17.8-14.327-32.028-32-32.028-17.796 0-32 14.339-32 32.028v223.974c-17.969 0.155-32 14.29-32 31.703v128.59c0 17.177 14.3 31.543 32 31.704v0zM416 384v-128h64v128h-64zM32 384v-128h64v128h-64zM224 192v-128h64v128h-64z" />
<glyph unicode="&#xe613;" d="M47.944 320c-8.806 0-15.944-7.422-15.944-16v0c0-8.837 7.037-16 15.944-16h416.111c8.806 0 15.945 7.422 15.945 16v0c0 8.837-7.037 16-15.945 16h-416.111zM176.309 256c-9.007 0-16.309-7.422-16.309-16v0c0-8.837 7.285-16 16.309-16h287.383c9.007 0 16.309 7.422 16.309 16v0c0 8.837-7.285 16-16.309 16h-287.382zM47.944 192c-8.806 0-15.944-7.422-15.944-16v0c0-8.837 7.037-16 15.944-16h416.111c8.806 0 15.945 7.422 15.945 16v0c0 8.837-7.037 16-15.945 16h-416.111zM176.309 128c-9.007 0-16.309-7.422-16.309-16v0c0-8.837 7.285-16 16.309-16h287.383c9.007 0 16.309 7.422 16.309 16v0c0 8.837-7.285 16-16.309 16h-287.382z" />
<glyph unicode="&#xe614;" d="M47.944 320c-8.806 0-15.944-7.422-15.944-16v0c0-8.837 7.037-16 15.944-16h416.111c8.806 0 15.945 7.422 15.945 16v0c0 8.837-7.037 16-15.945 16h-416.111zM112.309 256c-9.007 0-16.309-7.422-16.309-16v0c0-8.837 7.285-16 16.309-16h287.383c9.007 0 16.309 7.422 16.309 16v0c0 8.837-7.285 16-16.309 16h-287.382zM47.944 192c-8.806 0-15.944-7.422-15.944-16v0c0-8.837 7.037-16 15.944-16h416.111c8.806 0 15.945 7.422 15.945 16v0c0 8.837-7.037 16-15.945 16h-416.111zM112.309 128c-9.007 0-16.309-7.422-16.309-16v0c0-8.837 7.285-16 16.309-16h287.383c9.007 0 16.309 7.422 16.309 16v0c0 8.837-7.285 16-16.309 16h-287.382z" />
<glyph unicode="&#xe615;" d="M47.944 320c-8.806 0-15.944-7.422-15.944-16v0c0-8.837 7.037-16 15.944-16h416.111c8.806 0 15.945 7.422 15.945 16v0c0 8.837-7.037 16-15.945 16h-416.111zM47.944 256c-8.806 0-15.944-7.422-15.944-16v0c0-8.837 7.037-16 15.944-16h416.111c8.806 0 15.945 7.422 15.945 16v0c0 8.837-7.037 16-15.945 16h-416.111zM47.944 192c-8.806 0-15.944-7.422-15.944-16v0c0-8.837 7.037-16 15.944-16h416.111c8.806 0 15.945 7.422 15.945 16v0c0 8.837-7.037 16-15.945 16h-416.111zM47.944 128c-8.806 0-15.944-7.422-15.944-16v0c0-8.837 7.037-16 15.944-16h416.111c8.806 0 15.945 7.422 15.945 16v0c0 8.837-7.037 16-15.945 16h-416.111z" />
<glyph unicode="&#xe616;" d="M47.944 320c-8.806 0-15.944-7.422-15.944-16v0c0-8.837 7.037-16 15.944-16h416.111c8.806 0 15.945 7.422 15.945 16v0c0 8.837-7.037 16-15.945 16h-416.111zM48.273 256c-8.988 0-16.273-7.422-16.273-16v0c0-8.837 7.269-16 16.273-16h286.751c8.988 0 16.273 7.422 16.273 16v0c0 8.837-7.269 16-16.273 16h-286.751zM47.944 192c-8.806 0-15.944-7.422-15.944-16v0c0-8.837 7.037-16 15.944-16h416.111c8.806 0 15.945 7.422 15.945 16v0c0 8.837-7.037 16-15.945 16h-416.111zM48.273 128c-8.988 0-16.273-7.422-16.273-16v0c0-8.837 7.269-16 16.273-16h286.751c8.988 0 16.273 7.422 16.273 16v0c0 8.837-7.269 16-16.273 16h-286.751z" />
<glyph unicode="&#xe617;" d="M63.81 480h384.38c35.185 0 63.81-28.568 63.81-63.81v-384.38c0-35.185-28.568-63.81-63.81-63.81h-384.38c-35.185 0-63.81 28.568-63.81 63.81v384.38c0 35.185 28.569 63.81 63.81 63.81zM64.219 384c-17.794 0-32.219-14.584-32.219-32.079v-319.841c0-17.717 14.398-32.079 32.219-32.079h383.562c17.794 0 32.219 14.584 32.219 32.079v319.841c0 17.717-14.399 32.079-32.219 32.079h-383.562zM464 416c8.837 0 16 7.163 16 16s-7.163 16-16 16c-8.837 0-16-7.163-16-16s7.163-16 16-16zM400 416c8.837 0 16 7.163 16 16s-7.163 16-16 16c-8.837 0-16-7.163-16-16s7.163-16 16-16zM336 416c8.837 0 16 7.163 16 16s-7.163 16-16 16c-8.837 0-16-7.163-16-16s7.163-16 16-16zM191.705 352c-17.51 0-31.705-14.582-31.705-31.852v-256.295c0-17.592 14.431-31.853 31.705-31.853h128.59c17.51 0 31.705 14.582 31.705 31.853v256.295c0 17.592-14.431 31.853-31.705 31.853h-128.59z" />
<glyph unicode="&#xe618;" d="M63.81 480h384.38c35.185 0 63.81-28.568 63.81-63.81v-384.38c0-35.185-28.568-63.81-63.81-63.81h-384.38c-35.185 0-63.81 28.568-63.81 63.81v384.38c0 35.185 28.569 63.81 63.81 63.81zM64.219 384c-17.794 0-32.219-14.584-32.219-32.079v-319.841c0-17.717 14.398-32.079 32.219-32.079h383.562c17.794 0 32.219 14.584 32.219 32.079v319.841c0 17.717-14.399 32.079-32.219 32.079h-383.562zM464 416c8.837 0 16 7.163 16 16s-7.163 16-16 16c-8.837 0-16-7.163-16-16s7.163-16 16-16zM400 416c8.837 0 16 7.163 16 16s-7.163 16-16 16c-8.837 0-16-7.163-16-16s7.163-16 16-16zM336 416c8.837 0 16 7.163 16 16s-7.163 16-16 16c-8.837 0-16-7.163-16-16s7.163-16 16-16zM96.079 352c-17.717 0-32.079-14.582-32.079-31.852v-256.295c0-17.592 14.584-31.853 32.079-31.853h319.841c17.717 0 32.079 14.582 32.079 31.853v256.295c0 17.592-14.584 31.853-32.079 31.853h-319.841z" />
<glyph unicode="&#xe619;" d="M380.947 90.22l-118.435 283.186c-11.6 27.697-42.734 44.654-73.87 42.393-28.693 0-56.166-16.957-66.543-42.393l-119.046-283.186c-2.442-5.087-3.053-10.175-3.053-15.262 0-21.479 18.315-42.959 45.787-42.959 18.925 0 36.019 10.175 42.734 26.567l18.71 42.553h174.601l13.647-42.553c6.716-16.392 23.809-26.567 42.124-26.567 28.082 0 46.397 22.044 46.397 42.959 0 5.087-1.221 10.175-3.053 15.262zM256 177.92h-128l64 153.748 64-153.748zM505.6 274.24v81.6c0 44.48-32.32 58.56-67.52 58.56-17.92 0-52.48-6.4-62.080-21.76-1.28-2.24-2.24-5.12-2.24-8 0-9.6 8-15.68 15.36-15.68 2.56 0 5.12 0.96 7.36 2.24 10.56 7.040 22.4 9.92 34.56 9.92 20.48 0 33.92-10.24 33.92-25.92v-20.8c-10.24 12.16-28.48 18.88-48.96 18.88-24.64 0-53.76-13.76-53.76-49.92 0-34.56 29.12-51.2 53.76-51.2 20.16 0 38.4 7.36 48.96 19.84 0-15.36 14.4-17.92 17.6-17.92h3.2c10.88 0 19.84 8.96 19.84 20.16zM464.96 293.12c-6.72-8.96-19.52-13.44-32.64-13.44-16 0-29.12 8.32-29.12 22.72 0 15.040 13.12 23.36 29.12 23.36 13.12 0 25.92-4.48 32.64-13.44v-19.2z" />
<glyph unicode="&#xe61a;" d="M292.281 16c5.533-9.565 15.875-16 27.719-16s22.186 6.435 27.719 16h84.27c8.842 0 16.011 7.422 16.011 16 0 8.837-7.328 16-16.011 16h-84.27c-5.533 9.565-15.875 16-27.719 16s-22.186-6.435-27.719-16h-212.27c-8.843 0-16.011-7.422-16.011-16 0-8.837 7.328-16 16.011-16h212.27zM63.81 480h384.38c35.185 0 63.81-28.568 63.81-63.81v-384.38c0-35.185-28.568-63.81-63.81-63.81h-384.38c-35.185 0-63.81 28.568-63.81 63.81v384.38c0 35.185 28.569 63.81 63.81 63.81zM64.219 448c-17.794 0-32.219-14.235-32.219-31.858v-288.283c0-17.595 14.398-31.858 32.219-31.858h383.562c17.794 0 32.219 14.235 32.219 31.858v288.283c0 17.595-14.399 31.858-32.219 31.858h-383.562zM352 272l-160 64v-128l160 64z" />
<glyph unicode="&#xe61b;" d="M210.745 224l-112.982 112.982c-12.601 12.601-12.651 32.913-0.155 45.41 12.584 12.584 32.827 12.428 45.41-0.155l112.982-112.982 112.982 112.982c12.601 12.601 32.913 12.652 45.409 0.155 12.584-12.584 12.428-32.827-0.155-45.41l-112.982-112.982 112.982-112.982c12.601-12.601 12.651-32.913 0.155-45.409-12.584-12.584-32.827-12.428-45.409 0.155l-112.982 112.982-112.982-112.982c-12.601-12.601-32.913-12.651-45.41-0.155-12.584 12.584-12.427 32.827 0.155 45.409l112.982 112.982z" />
<glyph unicode="&#xe61c;" d="M96 223.863v128.137h320v-319.727c0-35.411-28.649-64.273-63.988-64.273h-192.024c-35.59 0-63.987 28.776-63.987 64.273v191.591zM320 448h95.921c17.495 0 32.079-14.327 32.079-32 0-17.797-14.363-32-32.079-32h-319.841c-17.495 0-32.079 14.327-32.079 32 0 17.796 14.362 32 32.079 32l95.921 0.034c0 17.801 14.461 31.966 32.3 31.966h63.401c18.113 0 32.3-14.312 32.3-31.966v-0.034z" />
<glyph unicode="&#xe61d;" d="M347.302 36.68c-2.832-2.868-6.714-4.68-10.998-4.68h-96.609c-8.814 0-15.696 7.163-15.696 16 0 8.578 7.027 16 15.696 16h80.304v80.305c0 8.813 7.163 15.695 16 15.695 8.578 0 16-7.027 16-15.695v-96.609c0-4.356-1.75-8.24-4.587-11.055zM164.587 411.36l0.111-0.040c2.832 2.868 6.714 4.68 10.998 4.68h96.609c8.813 0 15.695-7.163 15.695-16 0-8.578-7.027-16-15.695-16h-80.305v-80.305c0-8.814-7.163-15.695-16-15.695-8.578 0-16 7.027-16 15.695v96.609c0 4.356 1.75 8.24 4.587 11.055zM159.988 480h192.024c35.59 0 63.988-28.568 63.988-63.81v-384.38c0-35.185-28.649-63.81-63.988-63.81h-192.024c-35.59 0-63.987 28.568-63.987 63.81v384.38c0 35.185 28.648 63.81 63.987 63.81zM159.905 448c-17.62 0-31.905-14.399-31.905-32.219v-383.562c0-17.794 14.497-32.219 31.905-32.219h192.19c17.62 0 31.905 14.399 31.905 32.219v383.562c0 17.794-14.497 32.219-31.905 32.219h-192.19z" />
<glyph unicode="&#xe61e;" d="M443.302 132.68c-2.832-2.868-6.714-4.68-10.998-4.68h-96.609c-8.813 0-15.695 7.163-15.695 16 0 8.578 7.027 16 15.695 16h80.305v80.305c0 8.814 7.163 15.695 16 15.695 8.578 0 16-7.027 16-15.695v-96.609c0-4.356-1.75-8.24-4.587-11.055zM68.587 315.36l0.111-0.040c2.832 2.868 6.715 4.68 10.998 4.68h96.609c8.814 0 15.696-7.163 15.696-16 0-8.578-7.027-16-15.696-16h-80.305v-80.305c0-8.813-7.163-15.695-16-15.695-8.578 0-16 7.027-16 15.695v96.609c0 4.356 1.75 8.24 4.587 11.055zM63.81 384h384.38c35.185 0 63.81-28.649 63.81-63.988v-192.024c0-35.59-28.568-63.988-63.81-63.988h-384.38c-35.185 0-63.81 28.649-63.81 63.988v192.024c0 35.59 28.569 63.988 63.81 63.988zM64.219 352c-17.794 0-32.219-14.497-32.219-31.905v-192.19c0-17.62 14.398-31.905 32.219-31.905h383.562c17.794 0 32.219 14.497 32.219 31.905v192.19c0 17.62-14.399 31.905-32.219 31.905h-383.562z" />
<glyph unicode="&#xe61f;" d="M443.302 36.68c-2.832-2.868-6.714-4.68-10.998-4.68h-96.609c-8.813 0-15.695 7.163-15.695 16 0 8.578 7.027 16 15.695 16h80.305v80.305c0 8.813 7.163 15.695 16 15.695 8.578 0 16-7.027 16-15.695v-96.609c0-4.356-1.75-8.24-4.587-11.055zM68.587 411.36l0.111-0.040c2.832 2.868 6.715 4.68 10.998 4.68h96.609c8.814 0 15.696-7.163 15.696-16 0-8.578-7.027-16-15.696-16h-80.305v-80.305c0-8.814-7.163-15.695-16-15.695-8.578 0-16 7.027-16 15.695v96.609c0 4.356 1.75 8.24 4.587 11.055zM63.81 480h384.38c35.185 0 63.81-28.568 63.81-63.81v-384.38c0-35.185-28.568-63.81-63.81-63.81h-384.38c-35.185 0-63.81 28.568-63.81 63.81v384.38c0 35.185 28.569 63.81 63.81 63.81zM64.219 448c-17.794 0-32.219-14.399-32.219-32.219v-383.562c0-17.794 14.398-32.219 32.219-32.219h383.562c17.794 0 32.219 14.399 32.219 32.219v383.562c0 17.794-14.399 32.219-32.219 32.219h-383.562z" />
<glyph unicode="&#xe620;" d="M443.413 36.64l-0.111 0.040c-2.832-2.868-6.714-4.68-10.998-4.68h-96.609c-8.813 0-15.695 7.163-15.695 16 0 8.578 7.027 16 15.695 16h80.305v80.305c0 8.813 7.163 15.695 16 15.695 8.578 0 16-7.027 16-15.695v-96.609c0-4.356-1.75-8.24-4.587-11.055zM68.587 411.36l0.111-0.040c2.832 2.868 6.715 4.68 10.998 4.68h96.609c8.814 0 15.696-7.163 15.696-16 0-8.578-7.027-16-15.696-16h-80.305v-80.305c0-8.814-7.163-15.695-16-15.695-8.578 0-16 7.027-16 15.695v96.609c0 4.356 1.75 8.24 4.587 11.055zM63.81 480h384.38c35.185 0 63.81-28.568 63.81-63.81v-384.38c0-35.185-28.568-63.81-63.81-63.81h-384.38c-35.185 0-63.81 28.568-63.81 63.81v384.38c0 35.185 28.569 63.81 63.81 63.81zM64.219 448c-17.794 0-32.219-14.399-32.219-32.219v-383.562c0-17.794 14.398-32.219 32.219-32.219h383.562c17.794 0 32.219 14.399 32.219 32.219v383.562c0 17.794-14.399 32.219-32.219 32.219h-383.562zM256 208c8.837 0 16 7.163 16 16s-7.163 16-16 16c-8.837 0-16-7.163-16-16s7.163-16 16-16zM352 112c8.837 0 16 7.163 16 16s-7.163 16-16 16c-8.837 0-16-7.163-16-16s7.163-16 16-16zM160 304c8.837 0 16 7.163 16 16s-7.163 16-16 16c-8.837 0-16-7.163-16-16s7.163-16 16-16zM304 160c8.837 0 16 7.163 16 16s-7.163 16-16 16c-8.837 0-16-7.163-16-16s7.163-16 16-16zM208 256c8.837 0 16 7.163 16 16s-7.163 16-16 16c-8.837 0-16-7.163-16-16s7.163-16 16-16z" />
<glyph unicode="&#xe621;" d="M63.81 480h384.38c35.185 0 63.81-28.568 63.81-63.81v-384.38c0-35.185-28.568-63.81-63.81-63.81h-384.38c-35.185 0-63.81 28.568-63.81 63.81v384.38c0 35.185 28.569 63.81 63.81 63.81zM64.219 448c-17.794 0-32.219-14.399-32.219-32.219v-383.562c0-17.794 14.398-32.219 32.219-32.219h383.562c17.794 0 32.219 14.399 32.219 32.219v383.562c0 17.794-14.399 32.219-32.219 32.219h-383.562zM400.15 384c-8.919 0-16.15-7.422-16.15-16 0-8.837 6.849-16 16.15-16h31.7c8.92 0 16.15 7.422 16.15 16 0 8.837-6.849 16-16.15 16h-31.7zM304.15 384c-8.919 0-16.15-7.422-16.15-16 0-8.837 6.849-16 16.15-16h31.7c8.92 0 16.15 7.422 16.15 16 0 8.837-6.849 16-16.15 16h-31.7zM208.15 384c-8.919 0-16.15-7.422-16.15-16 0-8.837 6.849-16 16.15-16h31.7c8.919 0 16.15 7.422 16.15 16 0 8.837-6.849 16-16.15 16h-31.7zM112 320c26.51 0 48 21.49 48 48s-21.49 48-48 48c-26.51 0-48-21.49-48-48s21.49-48 48-48z" />
<glyph unicode="&#xe622;" d="M63.81 480h384.38c35.185 0 63.81-28.568 63.81-63.81v-384.38c0-35.185-28.568-63.81-63.81-63.81h-384.38c-35.185 0-63.81 28.568-63.81 63.81v384.38c0 35.185 28.569 63.81 63.81 63.81zM336.15 352c-8.919 0-16.15-7.422-16.15-16 0-8.837 6.849-16 16.15-16h31.7c8.92 0 16.15 7.422 16.15 16 0 8.837-6.849 16-16.15 16h-31.7zM256 384c17.673 0 32 14.327 32 32s-14.327 32-32 32c-17.673 0-32-14.327-32-32s14.327-32 32-32zM240.15 352c-8.919 0-16.15-7.422-16.15-16 0-8.837 6.849-16 16.15-16h31.7c8.919 0 16.15 7.422 16.15 16 0 8.837-6.849 16-16.15 16h-31.7zM144.15 352c-8.919 0-16.15-7.422-16.15-16 0-8.837 6.849-16 16.15-16h31.7c8.919 0 16.15 7.422 16.15 16 0 8.837-6.849 16-16.15 16h-31.7zM64.219 288c-17.794 0-32.219-14.282-32.219-31.922v-224.157c0-17.63 14.398-31.921 32.219-31.921h383.562c17.794 0 32.219 14.282 32.219 31.921v224.157c0 17.63-14.399 31.922-32.219 31.922h-383.562z" />
<glyph unicode="&#xe623;" d="M63.81 480h384.38c35.185 0 63.81-28.568 63.81-63.81v-384.38c0-35.185-28.568-63.81-63.81-63.81h-384.38c-35.185 0-63.81 28.568-63.81 63.81v384.38c0 35.185 28.569 63.81 63.81 63.81zM432.15 416c-8.919 0-16.15-7.422-16.15-16 0-8.837 6.849-16 16.15-16h31.7c8.92 0 16.15 7.422 16.15 16 0 8.837-6.849 16-16.15 16h-31.7zM336.15 416c-8.919 0-16.15-7.422-16.15-16 0-8.837 6.849-16 16.15-16h31.7c8.92 0 16.15 7.422 16.15 16 0 8.837-6.849 16-16.15 16h-31.7zM256 384c17.673 0 32 14.327 32 32s-14.327 32-32 32c-17.673 0-32-14.327-32-32s14.327-32 32-32zM144.15 416c-8.919 0-16.15-7.422-16.15-16 0-8.837 6.849-16 16.15-16h31.7c8.919 0 16.15 7.422 16.15 16 0 8.837-6.849 16-16.15 16h-31.7zM48.15 416c-8.919 0-16.15-7.422-16.15-16 0-8.837 6.849-16 16.15-16h31.7c8.919 0 16.15 7.422 16.15 16 0 8.837-6.849 16-16.15 16h-31.7zM64.219 320c-17.794 0-32.219-14.582-32.219-31.852v-256.295c0-17.592 14.398-31.853 32.219-31.853h383.562c17.794 0 32.219 14.582 32.219 31.853v256.295c0 17.592-14.399 31.853-32.219 31.853h-383.562z" />
<glyph unicode="&#xe624;" d="M63.81 480h384.38c35.185 0 63.81-28.568 63.81-63.81v-384.38c0-35.185-28.568-63.81-63.81-63.81h-384.38c-35.185 0-63.81 28.568-63.81 63.81v384.38c0 35.185 28.569 63.81 63.81 63.81zM64.219 320c-17.794 0-32.219-14.582-32.219-31.852v-256.295c0-17.592 14.398-31.853 32.219-31.853h383.562c17.794 0 32.219 14.582 32.219 31.853v256.295c0 17.592-14.399 31.853-32.219 31.853h-383.562zM240.15 416c-8.919 0-16.15-7.422-16.15-16 0-8.837 6.849-16 16.15-16h31.7c8.919 0 16.15 7.422 16.15 16 0 8.837-6.849 16-16.15 16h-31.7zM144.15 416c-8.919 0-16.15-7.422-16.15-16 0-8.837 6.849-16 16.15-16h31.7c8.919 0 16.15 7.422 16.15 16 0 8.837-6.849 16-16.15 16h-31.7zM48.15 416c-8.919 0-16.15-7.422-16.15-16 0-8.837 6.849-16 16.15-16h31.7c8.919 0 16.15 7.422 16.15 16 0 8.837-6.849 16-16.15 16h-31.7zM432 352c26.51 0 48 21.49 48 48s-21.49 48-48 48c-26.51 0-48-21.49-48-48s21.49-48 48-48z" />
<glyph unicode="&#xe625;" d="M63.81 480h384.38c35.185 0 63.81-28.568 63.81-63.81v-384.38c0-35.185-28.568-63.81-63.81-63.81h-384.38c-35.185 0-63.81 28.568-63.81 63.81v384.38c0 35.185 28.569 63.81 63.81 63.81zM64.219 320c-17.794 0-32.219-14.582-32.219-31.852v-256.295c0-17.592 14.398-31.853 32.219-31.853h383.562c17.794 0 32.219 14.582 32.219 31.853v256.295c0 17.592-14.399 31.853-32.219 31.853h-383.562zM432.15 416c-8.919 0-16.15-7.422-16.15-16 0-8.837 6.849-16 16.15-16h31.7c8.92 0 16.15 7.422 16.15 16 0 8.837-6.849 16-16.15 16h-31.7zM336.15 416c-8.919 0-16.15-7.422-16.15-16 0-8.837 6.849-16 16.15-16h31.7c8.92 0 16.15 7.422 16.15 16 0 8.837-6.849 16-16.15 16h-31.7zM240.15 416c-8.919 0-16.15-7.422-16.15-16 0-8.837 6.849-16 16.15-16h31.7c8.919 0 16.15 7.422 16.15 16 0 8.837-6.849 16-16.15 16h-31.7zM80 352c26.51 0 48 21.49 48 48s-21.49 48-48 48c-26.51 0-48-21.49-48-48s21.49-48 48-48z" />
<glyph unicode="&#xe626;" d="M63.81 480h384.38c35.185 0 63.81-28.568 63.81-63.81v-384.38c0-35.185-28.568-63.81-63.81-63.81h-384.38c-35.185 0-63.81 28.568-63.81 63.81v384.38c0 35.185 28.569 63.81 63.81 63.81zM64.219 288c-17.794 0-32.219-14.282-32.219-31.922v-224.157c0-17.63 14.398-31.921 32.219-31.921h383.562c17.794 0 32.219 14.282 32.219 31.921v224.157c0 17.63-14.399 31.922-32.219 31.922h-383.562zM48.15 352c-8.919 0-16.15-7.422-16.15-16 0-8.837 6.849-16 16.15-16h31.7c8.919 0 16.15 7.422 16.15 16 0 8.837-6.849 16-16.15 16h-31.7zM144.15 352c-8.919 0-16.15-7.422-16.15-16 0-8.837 6.849-16 16.15-16h31.7c8.919 0 16.15 7.422 16.15 16 0 8.837-6.849 16-16.15 16h-31.7zM240.15 352c-8.919 0-16.15-7.422-16.15-16 0-8.837 6.849-16 16.15-16h31.7c8.919 0 16.15 7.422 16.15 16 0 8.837-6.849 16-16.15 16h-31.7zM336.15 352c-8.919 0-16.15-7.422-16.15-16 0-8.837 6.849-16 16.15-16h31.7c8.92 0 16.15 7.422 16.15 16 0 8.837-6.849 16-16.15 16h-31.7zM432.15 352c-8.919 0-16.15-7.422-16.15-16 0-8.837 6.849-16 16.15-16h31.7c8.92 0 16.15 7.422 16.15 16 0 8.837-6.849 16-16.15 16h-31.7zM64 384c17.673 0 32 14.327 32 32s-14.327 32-32 32c-17.673 0-32-14.327-32-32s14.327-32 32-32z" />
</font>
</defs>
</svg>
