<?xml version="1.0" standalone="no"?>
<!DOCTYPE svg PUBLIC "-//W3C//DTD SVG 1.1//EN" "http://www.w3.org/Graphics/SVG/1.1/DTD/svg11.dtd" >
<svg xmlns="http://www.w3.org/2000/svg">
<metadata>Generated by IcoMoon</metadata>
<defs>
<font id="hatch-interface" horiz-adv-x="512">
<font-face units-per-em="512" ascent="480" descent="-32" />
<missing-glyph horiz-adv-x="512" />
<glyph unicode="&#x20;" d="" horiz-adv-x="256" />
<glyph unicode="&#xe600;" d="M0.143 223.031c0 0 73 179.514 257.768 179.514s253.79-182.197 253.79-182.197c0 0-69.228-184.531-253.893-184.531s-257.665 187.214-257.665 187.214zM256 73.143c80.791 0 146.286 65.495 146.286 146.286s-65.495 146.286-146.286 146.286c-80.791 0-146.286-65.495-146.286-146.286s65.495-146.286 146.286-146.286zM256 146.286c40.395 0 73.143 32.747 73.143 73.143s-32.747 73.143-73.143 73.143c-40.395 0-73.143-32.747-73.143-73.143s32.747-73.143 73.143-73.143z" />
<glyph unicode="&#xe601;" d="M54.87 347.429c-10.106 0-18.298-8.117-18.298-18.286v0c0-10.099 8.182-18.286 18.299-18.286h402.26c10.106 0 18.298 8.116 18.298 18.286v0c0 10.099-8.183 18.286-18.298 18.286h-402.26zM54.855 274.286c-10.097 0-18.283-8.116-18.283-18.285v0c0-10.099 8.136-18.286 18.283-18.286h292.577c10.098 0 18.283 8.116 18.283 18.286v0c0 10.099-8.136 18.286-18.283 18.286h-292.577zM54.87 201.143c-10.106 0-18.298-8.116-18.298-18.286v0c0-10.099 8.182-18.286 18.299-18.286h402.26c10.106 0 18.298 8.116 18.298 18.286v0c0 10.099-8.183 18.286-18.298 18.286h-402.26zM54.855 128c-10.097 0-18.283-8.116-18.283-18.286v0c0-10.099 8.136-18.286 18.283-18.286h292.577c10.098 0 18.283 8.116 18.283 18.286v0c0 10.099-8.136 18.286-18.283 18.286h-292.577z" />
<glyph unicode="&#xe602;" d="M54.87 347.429c-10.106 0-18.298-8.117-18.298-18.286v0c0-10.099 8.182-18.286 18.299-18.286h402.26c10.106 0 18.298 8.116 18.298 18.286v0c0 10.099-8.183 18.286-18.298 18.286h-402.26zM164.569 274.286c-10.097 0-18.283-8.116-18.283-18.285v0c0-10.099 8.136-18.286 18.283-18.286h292.577c10.098 0 18.283 8.116 18.283 18.286v0c0 10.099-8.136 18.286-18.283 18.286h-292.577zM54.87 201.143c-10.106 0-18.298-8.116-18.298-18.286v0c0-10.099 8.182-18.286 18.299-18.286h402.26c10.106 0 18.298 8.116 18.298 18.286v0c0 10.099-8.183 18.286-18.298 18.286h-402.26zM164.569 128c-10.097 0-18.283-8.116-18.283-18.286v0c0-10.099 8.136-18.286 18.283-18.286h292.577c10.098 0 18.283 8.116 18.283 18.286v0c0 10.099-8.136 18.286-18.283 18.286h-292.577z" />
<glyph unicode="&#xe603;" d="M54.87 347.429c-10.106 0-18.298-8.117-18.298-18.286v0c0-10.099 8.182-18.286 18.299-18.286h402.26c10.106 0 18.298 8.116 18.298 18.286v0c0 10.099-8.183 18.286-18.298 18.286h-402.26zM109.712 274.286c-10.097 0-18.283-8.116-18.283-18.285v0c0-10.099 8.136-18.286 18.283-18.286h292.577c10.098 0 18.283 8.116 18.283 18.286v0c0 10.099-8.136 18.286-18.283 18.286h-292.577zM54.87 201.143c-10.106 0-18.298-8.116-18.298-18.286v0c0-10.099 8.182-18.286 18.299-18.286h402.26c10.106 0 18.298 8.116 18.298 18.286v0c0 10.099-8.183 18.286-18.298 18.286h-402.26zM109.712 128c-10.097 0-18.283-8.116-18.283-18.286v0c0-10.099 8.136-18.286 18.283-18.286h292.577c10.098 0 18.283 8.116 18.283 18.286v0c0 10.099-8.136 18.286-18.283 18.286h-292.577z" />
<glyph unicode="&#xe604;" d="M475.428 124.325l-47.251 47.251c-14.3 14.3-37.528 14.256-51.784 0l-47.251-47.251-156.965 156.965c-14.299 14.3-37.528 14.256-51.784 0l-83.823-83.822v223.091c0 10.116 8.193 18.298 18.299 18.298h402.26c10.116 0 18.298-8.192 18.298-18.298v-296.235zM36.617 475.429c-20.223 0-36.617-16.456-36.617-36.617v-438.767c0-20.223 16.456-36.616 36.617-36.616h438.768c20.223 0 36.616 16.456 36.616 36.616v438.767c0 20.222-16.456 36.616-36.616 36.616h-438.767zM384 292.572c30.297 0 54.857 24.56 54.857 54.857s-24.56 54.857-54.857 54.857c-30.297 0-54.857-24.56-54.857-54.857s24.56-54.857 54.857-54.857z" />
<glyph unicode="&#xe605;" d="M237.714 109.714h-201.098c-20.161 0-36.617 16.373-36.617 36.572v292.571c0 20.147 16.393 36.571 36.617 36.571h438.767c20.161 0 36.617-16.373 36.617-36.571v-292.571c0-20.147-16.394-36.572-36.616-36.572h-201.098v-109.714h146.31c10.11 0 18.261-8.187 18.261-18.286 0-10.17-8.175-18.286-18.261-18.286h-329.192c-10.109 0-18.261 8.187-18.261 18.286 0 10.17 8.175 18.286 18.261 18.286h146.31v109.714zM54.87 438.857c-10.106 0-18.298-8.13-18.298-18.302v-255.968c0-10.108 8.182-18.301 18.299-18.301h402.26c10.106 0 18.298 8.13 18.298 18.301v255.968c0 10.108-8.183 18.302-18.298 18.302h-402.26z" />
<glyph unicode="&#xe606;" d="M164.542 475.429h182.915c20.139 0 36.543-16.394 36.543-36.617v-438.767c0-20.161-16.361-36.616-36.543-36.616h-182.915c-20.139 0-36.542 16.394-36.542 36.616v438.767c0 20.161 16.361 36.616 36.542 36.616zM228.544 448c-5.035 0-9.115-4.058-9.115-9.143 0-5.050 4.142-9.143 9.115-9.143h54.912c5.034 0 9.115 4.058 9.115 9.143 0 5.050-4.142 9.143-9.115 9.143h-54.911zM164.617 402.286c-10.124 0-18.331-8.136-18.331-18.283v-292.577c0-10.098 8.202-18.283 18.331-18.283h182.767c10.124 0 18.331 8.136 18.331 18.283v292.577c0 10.097-8.202 18.283-18.331 18.283h-182.767zM256 0c10.099 0 18.286 8.187 18.286 18.286s-8.187 18.286-18.286 18.286c-10.099 0-18.286-8.187-18.286-18.286s8.187-18.286 18.286-18.286z" />
<glyph unicode="&#xe607;" d="M109.715 475.429h292.571c20.147 0 36.572-16.394 36.572-36.617v-438.767c0-20.161-16.373-36.616-36.572-36.616h-292.571c-20.147 0-36.572 16.394-36.572 36.616v438.767c0 20.161 16.373 36.616 36.572 36.616zM109.712 402.286c-10.097 0-18.283-8.136-18.283-18.283v-292.577c0-10.098 8.136-18.283 18.283-18.283h292.577c10.098 0 18.283 8.136 18.283 18.283v292.577c0 10.097-8.136 18.283-18.283 18.283h-292.577zM228.544 448c-5.035 0-9.115-4.058-9.115-9.143 0-5.050 4.142-9.143 9.115-9.143h54.912c5.034 0 9.115 4.058 9.115 9.143 0 5.050-4.142 9.143-9.115 9.143h-54.911zM256 0c10.099 0 18.286 8.187 18.286 18.286s-8.187 18.286-18.286 18.286c-10.099 0-18.286-8.187-18.286-18.286s8.187-18.286 18.286-18.286z" />
<glyph unicode="&#xe608;" d="M73.143 179.736v240.823c0 10.116 8.187 18.298 18.285 18.298 10.169 0 18.285-8.192 18.285-18.298v-240.823c-5.719 2.022-11.874 3.122-18.285 3.122s-12.567-1.1-18.285-3.122zM73.143 76.265v-57.966c0-10.106 8.117-18.298 18.285-18.298 10.099 0 18.285 8.183 18.285 18.298v57.966c-5.719-2.022-11.874-3.122-18.285-3.122s-12.567 1.1-18.285 3.122zM91.428 73.143c-30.297 0-54.857 24.56-54.857 54.857s24.561 54.857 54.857 54.857c30.297 0 54.857-24.56 54.857-54.857s-24.561-54.857-54.857-54.857zM91.428 109.714c10.099 0 18.285 8.187 18.285 18.286s-8.187 18.286-18.285 18.286c-10.099 0-18.285-8.187-18.285-18.286s8.187-18.286 18.285-18.286zM256 256c-30.297 0-54.857 24.56-54.857 54.857s24.56 54.857 54.857 54.857c30.297 0 54.857-24.56 54.857-54.857s-24.56-54.857-54.857-54.857zM256 292.572c10.099 0 18.286 8.187 18.286 18.286s-8.187 18.286-18.286 18.286c-10.099 0-18.286-8.187-18.286-18.286s8.187-18.286 18.286-18.286zM420.572 73.143c-30.297 0-54.857 24.56-54.857 54.857s24.56 54.857 54.857 54.857c30.297 0 54.857-24.56 54.857-54.857s-24.56-54.857-54.857-54.857zM420.572 109.714c10.099 0 18.286 8.187 18.286 18.286s-8.187 18.286-18.286 18.286c-10.099 0-18.286-8.187-18.286-18.286s8.187-18.286 18.286-18.286zM237.714 362.593v57.966c0 10.116 8.187 18.298 18.286 18.298 10.169 0 18.286-8.192 18.286-18.298v-57.966c-5.719 2.022-11.874 3.121-18.286 3.121s-12.566-1.1-18.286-3.121zM237.714 259.122v-240.823c0-10.106 8.117-18.298 18.286-18.298 10.099 0 18.286 8.183 18.286 18.298v240.823c-5.719-2.022-11.874-3.121-18.286-3.121s-12.566 1.1-18.286 3.121zM402.286 179.736v240.823c0 10.116 8.187 18.298 18.286 18.298 10.169 0 18.286-8.192 18.286-18.298v-240.823c-5.719 2.022-11.874 3.122-18.286 3.122s-12.567-1.1-18.286-3.122zM402.286 76.265v-57.966c0-10.106 8.116-18.298 18.286-18.298 10.099 0 18.286 8.183 18.286 18.298v57.966c-5.719-2.022-11.874-3.122-18.286-3.122s-12.567 1.1-18.286 3.122z" />
<glyph unicode="&#xe609;" d="M36.572 475.429h73.143c20.198 0 36.572-16.374 36.572-36.572v-73.143c0-20.198-16.374-36.571-36.572-36.571h-73.143c-20.198 0-36.572 16.373-36.572 36.571v73.143c0 20.198 16.373 36.572 36.572 36.572zM36.572 292.572h73.143c20.198 0 36.572-16.373 36.572-36.571v-73.143c0-20.198-16.374-36.572-36.572-36.572h-73.143c-20.198 0-36.572 16.373-36.572 36.572v73.143c0 20.198 16.373 36.572 36.572 36.572zM36.572 109.714h73.143c20.198 0 36.572-16.373 36.572-36.572v-73.143c0-20.198-16.374-36.572-36.572-36.572h-73.143c-20.198 0-36.572 16.373-36.572 36.572v73.143c0 20.198 16.373 36.572 36.572 36.572zM219.429 475.429h73.143c20.198 0 36.572-16.374 36.572-36.572v-73.143c0-20.198-16.373-36.571-36.572-36.571h-73.143c-20.198 0-36.571 16.373-36.571 36.571v73.143c0 20.198 16.374 36.572 36.572 36.572zM219.429 292.572h73.143c20.198 0 36.572-16.373 36.572-36.571v-73.143c0-20.198-16.373-36.572-36.572-36.572h-73.143c-20.198 0-36.571 16.373-36.571 36.572v73.143c0 20.198 16.374 36.572 36.572 36.572zM219.429 109.714h73.143c20.198 0 36.572-16.373 36.572-36.572v-73.143c0-20.198-16.373-36.572-36.572-36.572h-73.143c-20.198 0-36.571 16.373-36.571 36.572v73.143c0 20.198 16.374 36.572 36.572 36.572zM402.286 475.429h73.143c20.198 0 36.572-16.374 36.572-36.572v-73.143c0-20.198-16.373-36.571-36.572-36.571h-73.143c-20.198 0-36.572 16.373-36.572 36.571v73.143c0 20.198 16.373 36.572 36.572 36.572zM402.286 292.572h73.143c20.198 0 36.572-16.373 36.572-36.571v-73.143c0-20.198-16.373-36.572-36.572-36.572h-73.143c-20.198 0-36.572 16.373-36.572 36.572v73.143c0 20.198 16.373 36.572 36.572 36.572zM402.286 109.714h73.143c20.198 0 36.572-16.373 36.572-36.572v-73.143c0-20.198-16.373-36.572-36.572-36.572h-73.143c-20.198 0-36.572 16.373-36.572 36.572v73.143c0 20.198 16.373 36.572 36.572 36.572z" />
<glyph unicode="&#xe60a;" d="M36.572 475.429h438.857c20.198 0 36.571-16.374 36.571-36.572v-73.143c0-20.198-16.373-36.571-36.572-36.571h-438.857c-20.198 0-36.572 16.373-36.572 36.571v73.143c0 20.198 16.373 36.572 36.572 36.572zM36.572 292.572h438.857c20.198 0 36.571-16.373 36.571-36.571v-73.143c0-20.198-16.373-36.572-36.572-36.572h-438.857c-20.198 0-36.572 16.373-36.572 36.572v73.143c0 20.198 16.373 36.572 36.572 36.572zM36.572 109.714h438.857c20.198 0 36.571-16.373 36.571-36.572v-73.143c0-20.198-16.373-36.572-36.572-36.572h-438.857c-20.198 0-36.572 16.373-36.572 36.572v73.143c0 20.198 16.373 36.572 36.572 36.572z" />
<glyph unicode="&#xe60b;" d="M36.536 475.429c-20.178 0-36.536-16.389-36.536-36.565v-109.728c0-20.194 16.355-36.565 36.536-36.565h73.213c20.179 0 36.536 16.388 36.536 36.565v109.728c0 20.194-16.355 36.565-36.536 36.565h-73.213zM36.536 256c-20.178 0-36.536-16.357-36.536-36.61v-219.351c0-20.219 16.355-36.611 36.536-36.611h73.213c20.179 0 36.536 16.357 36.536 36.611v219.351c0 20.219-16.355 36.611-36.536 36.611h-73.213zM402.251 475.429c-20.178 0-36.536-16.389-36.536-36.565v-109.728c0-20.194 16.355-36.565 36.536-36.565h73.212c20.178 0 36.536 16.388 36.536 36.565v109.728c0 20.194-16.355 36.565-36.536 36.565h-73.212zM402.251 256c-20.178 0-36.536-16.357-36.536-36.61v-219.351c0-20.219 16.355-36.611 36.536-36.611h73.212c20.178 0 36.536 16.357 36.536 36.611v219.351c0 20.219-16.355 36.611-36.536 36.611h-73.212zM219.394 475.429c-20.178 0-36.536-16.357-36.536-36.611v-219.351c0-20.219 16.355-36.611 36.536-36.611h73.212c20.178 0 36.536 16.357 36.536 36.611v219.351c0 20.219-16.355 36.611-36.536 36.611h-73.213zM219.394 146.286c-20.178 0-36.536-16.389-36.536-36.565v-109.728c0-20.194 16.355-36.565 36.536-36.565h73.212c20.178 0 36.536 16.389 36.536 36.565v109.728c0 20.194-16.355 36.565-36.536 36.565h-73.213z" />
<glyph unicode="&#xe60c;" d="M36.617 475.429h438.768c20.161 0 36.616-16.394 36.616-36.617v-438.767c0-20.161-16.394-36.616-36.616-36.616h-438.767c-20.161 0-36.617 16.394-36.617 36.616v438.767c0 20.161 16.393 36.616 36.617 36.616zM54.87 438.857c-10.106 0-18.298-8.183-18.298-18.298v-402.26c0-10.106 8.182-18.298 18.299-18.298h402.26c10.106 0 18.298 8.183 18.298 18.298v402.26c0 10.106-8.183 18.298-18.298 18.298h-402.26zM420.656 274.286c10.053 0 18.202-8.116 18.202-18.285v0c0-10.099-8.212-18.286-18.202-18.286h-146.454c-10.053 0-18.202 8.116-18.202 18.286v0c0 10.099 8.212 18.286 18.202 18.286h146.454zM384.055 201.143c10.069 0 18.231-8.116 18.231-18.286v0c0-10.099-8.178-18.286-18.231-18.286h-109.823c-10.069 0-18.231 8.116-18.231 18.286v0c0 10.099 8.178 18.286 18.231 18.286h109.823zM310.812-36.571h-274.15c-20.259 0-36.662 16.394-36.662 36.616v438.767c0 20.161 16.414 36.616 36.662 36.616h182.767v-512h91.383z" />
<glyph unicode="&#xe60d;" d="M36.617 475.429h438.768c20.161 0 36.616-16.394 36.616-36.617v-438.767c0-20.161-16.394-36.616-36.616-36.616h-438.767c-20.161 0-36.617 16.394-36.617 36.616v438.767c0 20.161 16.393 36.616 36.617 36.616zM54.87 438.857c-10.106 0-18.298-8.183-18.298-18.298v-402.26c0-10.106 8.182-18.298 18.299-18.298h402.26c10.106 0 18.298 8.183 18.298 18.298v402.26c0 10.106-8.183 18.298-18.298 18.298h-402.26zM420.656 274.286c10.053 0 18.202-8.116 18.202-18.285v0c0-10.099-8.212-18.286-18.202-18.286h-146.454c-10.053 0-18.202 8.116-18.202 18.286v0c0 10.099 8.212 18.286 18.202 18.286h146.454zM384.055 201.143c10.069 0 18.231-8.116 18.231-18.286v0c0-10.099-8.178-18.286-18.231-18.286h-109.823c-10.069 0-18.231 8.116-18.231 18.286v0c0 10.099 8.178 18.286 18.231 18.286h109.823zM310.812-36.571h-274.15c-20.259 0-36.662 16.394-36.662 36.616v438.767c0 20.161 16.414 36.616 36.662 36.616h182.767v-512h91.383z" />
<glyph unicode="&#xe60e;" d="M36.617 475.429h438.768c20.161 0 36.616-16.394 36.616-36.617v-438.767c0-20.161-16.394-36.616-36.616-36.616h-438.767c-20.161 0-36.617 16.394-36.617 36.616v438.767c0 20.161 16.393 36.616 36.617 36.616zM54.87 438.857c-10.106 0-18.298-8.183-18.298-18.298v-402.26c0-10.106 8.182-18.298 18.299-18.298h402.26c10.106 0 18.298 8.183 18.298 18.298v402.26c0 10.106-8.183 18.298-18.298 18.298h-402.26zM365.795 182.857c10.055 0 18.205-8.116 18.205-18.286v0c0-10.099-8.228-18.286-18.206-18.286h-219.589c-10.054 0-18.206 8.116-18.206 18.286v0c0 10.099 8.227 18.286 18.206 18.286h219.589zM329.098 109.714c10.124 0 18.331-8.116 18.331-18.286v0c0-10.099-8.202-18.286-18.331-18.286h-182.767c-10.124 0-18.331 8.116-18.331 18.286v0c0 10.099 8.202 18.286 18.331 18.286h182.767zM0 164.617v274.15c0 20.259 16.393 36.662 36.617 36.662h438.768c20.161 0 36.616-16.414 36.616-36.662v-182.767h-512v-91.383z" />
<glyph unicode="&#xe60f;" d="M36.617 475.429h438.768c20.161 0 36.616-16.394 36.616-36.617v-438.767c0-20.161-16.394-36.616-36.616-36.616h-438.767c-20.161 0-36.617 16.394-36.617 36.616v438.767c0 20.161 16.393 36.616 36.617 36.616zM54.87 438.857c-10.106 0-18.298-8.183-18.298-18.298v-402.26c0-10.106 8.182-18.298 18.299-18.298h402.26c10.106 0 18.298 8.183 18.298 18.298v402.26c0 10.106-8.183 18.298-18.298 18.298h-402.26zM237.798 274.286c10.053 0 18.202-8.116 18.202-18.285v0c0-10.099-8.212-18.286-18.202-18.286h-146.454c-10.052 0-18.201 8.116-18.201 18.286v0c0 10.099 8.212 18.286 18.201 18.286h146.454zM201.197 201.143c10.069 0 18.232-8.116 18.232-18.286v0c0-10.099-8.179-18.286-18.232-18.286h-109.823c-10.069 0-18.231 8.116-18.231 18.286v0c0 10.099 8.178 18.286 18.231 18.286h109.823zM201.188-36.571h274.15c20.259 0 36.662 16.394 36.662 36.616v438.767c0 20.161-16.414 36.616-36.662 36.616h-182.767v-512h-91.383z" />
<glyph unicode="&#xe610;" d="M438.857 402.286h-18.207c-10.118 0-18.363 8.187-18.363 18.286 0 10.17 8.221 18.286 18.363 18.286h18.207v18.207c0 10.118 8.187 18.363 18.286 18.363 10.169 0 18.286-8.221 18.286-18.363v-18.207h18.207c10.118 0 18.363-8.187 18.363-18.286 0-10.17-8.221-18.286-18.363-18.286h-18.207v-18.207c0-10.118-8.187-18.363-18.286-18.363-10.169 0-18.286 8.221-18.286 18.363v18.207zM491.58 20.707c0 6.783-1.563 13.566-3.908 20.349l-151.616 377.581c-14.849 36.929-54.707 59.538-94.565 56.524-36.731 0-71.9-22.61-85.186-56.524l-152.398-377.581c-3.126-6.783-3.908-13.566-3.908-20.349 0-28.639 23.446-57.278 58.614-57.278 24.227 0 46.11 13.566 54.707 35.422l21.101 54.263h223.517l20.32-54.263c8.597-21.856 30.48-35.422 53.925-35.422 35.95 0 59.396 29.392 59.396 57.278zM327.459 147.321h-162.558l81.279 216.299 81.279-216.299z" />
<glyph unicode="&#xe611;" d="M491.58 20.707c0 6.783-1.563 13.566-3.908 20.349l-151.616 377.581c-14.849 36.929-54.707 59.538-94.565 56.524-36.731 0-71.9-22.61-85.186-56.524l-152.398-377.581c-3.126-6.783-3.908-13.566-3.908-20.349 0-28.639 23.446-57.278 58.614-57.278 24.227 0 46.11 13.566 54.707 35.422l21.101 54.263h223.517l20.32-54.263c8.597-21.856 30.48-35.422 53.925-35.422 35.95 0 59.396 29.392 59.396 57.278zM327.459 147.321h-162.558l81.279 216.299 81.279-216.299z" horiz-adv-x="494" />
<glyph unicode="&#xe612;" d="M455.404 56.193c0 5.572-1.274 11.144-3.184 16.715l-123.539 310.156c-12.099 30.334-44.576 48.907-77.053 46.43-29.929 0-58.585-18.572-69.411-46.43l-124.176-310.156c-2.547-5.572-3.184-11.144-3.184-16.715 0-23.525 19.104-47.050 47.76-47.050 19.741 0 37.571 11.144 44.576 29.096l17.194 44.574h182.124l16.557-44.574c7.005-17.953 24.835-29.096 43.939-29.096 29.293 0 48.397 24.144 48.397 47.050zM321.676 160.197h-132.454l66.227 177.674 66.227-177.674z" />
<glyph unicode="&#xe613;" d="M382.894 112.97c0 3.634-0.81 7.267-2.026 10.901l-78.616 202.275c-7.7 19.784-28.366 31.896-49.034 30.281-19.046 0-37.281-12.113-44.171-30.281l-79.021-202.275c-1.621-3.634-2.026-7.267-2.026-10.901 0-15.342 12.157-30.685 30.392-30.685 12.563 0 23.909 7.267 28.367 18.976l10.941 29.070h115.897l10.536-29.070c4.457-11.709 15.804-18.976 27.962-18.976 18.641 0 30.798 15.746 30.798 30.685zM297.794 180.799h-84.289l42.144 115.875 42.144-115.875z" />
<glyph unicode="&#xe614;" d="M329.234 402.286c20.147 0 36.481-16.313 36.481-36.481v-146.467c0-20.147-16.313-36.481-36.481-36.481h-146.468c-20.148 0-36.481 16.313-36.481 36.481v146.467c0 20.148 16.314 36.481 36.481 36.481h146.468zM365.795 146.286c10.055 0 18.205-8.116 18.205-18.286v0c0-10.099-8.228-18.286-18.206-18.286h-219.589c-10.054 0-18.206 8.116-18.206 18.286v0c0 10.099 8.227 18.286 18.206 18.286h219.589zM347.384 73.143c10.124 0 18.331-8.116 18.331-18.286v0c0-10.099-8.202-18.286-18.331-18.286h-182.767c-10.124 0-18.331 8.116-18.331 18.286v0c0 10.099 8.202 18.286 18.331 18.286h182.767z" />
<glyph unicode="&#xe615;" d="M182.948 329.143c20.148 0 36.481-16.314 36.481-36.481v-146.468c0-20.147-16.314-36.481-36.481-36.481h-146.468c-20.148 0-36.48 16.313-36.48 36.481v146.467c0 20.148 16.314 36.481 36.48 36.481h146.468zM493.795 274.286c10.055 0 18.205-8.116 18.205-18.285 0-10.099-8.228-18.286-18.206-18.286h-219.589c-10.055 0-18.205 8.116-18.205 18.286 0 10.099 8.228 18.286 18.206 18.286h219.589zM457.098 201.143c10.124 0 18.331-8.116 18.331-18.286 0-10.099-8.202-18.286-18.331-18.286h-182.767c-10.124 0-18.331 8.116-18.331 18.286 0 10.099 8.202 18.286 18.331 18.286h182.767z" />
<glyph unicode="&#xe616;" d="M329.052 329.143c-20.147 0-36.481-16.314-36.481-36.481v-146.468c0-20.147 16.313-36.481 36.481-36.481h146.467c20.147 0 36.481 16.313 36.481 36.481v146.467c0 20.148-16.313 36.481-36.481 36.481h-146.467zM18.206 274.286c-10.055 0-18.206-8.116-18.206-18.285 0-10.099 8.227-18.286 18.206-18.286h219.589c10.054 0 18.206 8.116 18.206 18.286 0 10.099-8.227 18.286-18.206 18.286h-219.589zM18.331 201.143c-10.124 0-18.331-8.116-18.331-18.286 0-10.099 8.201-18.286 18.331-18.286h182.767c10.124 0 18.331 8.116 18.331 18.286 0 10.099-8.202 18.286-18.331 18.286h-182.767z" />
<glyph unicode="&#xe617;" d="M403.111 219.429l-87.601 87.601c-5.671 5.671-5.691 14.953 0.022 20.666 5.752 5.752 14.966 5.722 20.666 0.022l97.016-97.016c0.332-0.279 0.656-0.575 0.969-0.888 2.865-2.865 4.288-6.629 4.28-10.385 0.009-3.755-1.414-7.519-4.28-10.384-0.313-0.313-0.637-0.61-0.969-0.888l-97.016-97.016c-5.7-5.7-14.913-5.731-20.666 0.022-5.713 5.713-5.692 14.995-0.022 20.666l87.601 87.601zM108.889 219.429l87.601-87.601c5.671-5.671 5.691-14.953-0.022-20.666-5.752-5.752-14.965-5.723-20.666-0.022l-97.016 97.016c-0.332 0.279-0.656 0.575-0.969 0.888-2.865 2.865-4.288 6.629-4.28 10.385-0.009 3.755 1.415 7.519 4.28 10.385 0.313 0.313 0.636 0.609 0.969 0.888l97.016 97.016c5.701 5.7 14.913 5.731 20.666-0.022 5.713-5.713 5.692-14.995 0.022-20.666l-87.601-87.601zM36.617 475.429c-20.223 0-36.617-16.456-36.617-36.617v-438.767c0-20.223 16.456-36.616 36.617-36.616h438.768c20.223 0 36.616 16.456 36.616 36.616v438.767c0 20.222-16.456 36.616-36.616 36.616h-438.767z" />
<glyph unicode="&#xe618;" d="M256-36.571c-141.385 0-256 114.615-256 256s114.615 256 256 256c141.385 0 256-114.615 256-256s-114.615-256-256-256zM256 0c121.187 0 219.428 98.241 219.428 219.428s-98.241 219.429-219.429 219.429c-121.187 0-219.429-98.242-219.429-219.429s98.242-219.428 219.429-219.428zM347.428 288.999c0 45.155-35.581 76.716-93.68 76.716-28.825 0-74.314-12.624-86.475-38.358-1.802-3.885-2.702-8.254-2.702-13.109 0-17.48 12.161-28.161 26.573-28.161 6.756 0 13.512 1.942 18.916 5.827 10.81 7.768 23.42 12.624 36.931 12.624 24.771 0 35.13-12.624 35.13-27.676 0-33.502-65.757-40.3-65.757-98.079 0-29.618 14.863-45.155 31.977-45.155 16.665 0 25.222 13.595 25.222 25.733 0 4.856-1.351 6.798-1.351 13.11 0 40.3 75.214 45.641 75.214 116.529v0zM278.857 87.209c0 12.607-10.441 23.209-22.857 23.209s-22.857-10.601-22.857-23.209c0-12.607 10.441-23.209 22.857-23.209s22.857 10.601 22.857 23.209v0z" />
</font>
</defs>
</svg>
