<?xml version="1.0" standalone="no"?>
<!DOCTYPE svg PUBLIC "-//W3C//DTD SVG 1.1//EN" "http://www.w3.org/Graphics/SVG/1.1/DTD/svg11.dtd" >
<svg xmlns="http://www.w3.org/2000/svg">
<metadata>
<json>
<![CDATA[
{
	"fontFamily": "layers-interface",
	"majorVersion": 1,
	"minorVersion": 2,
	"fontURL": "http://oboxthemes.com",
	"description": "Layers Customizer Interface Icons\nFont generated by IcoMoon.",
	"copyright": "Obox Themes",
	"designerURL": "http://oboxthemes.com",
	"license": "GPL",
	"version": "Version 1.2",
	"fontId": "layers-interface",
	"psName": "layers-interface",
	"subFamily": "Regular",
	"fullName": "layers-interface"
}
]]>
</json>
</metadata>
<defs>
<font id="layers-interface" horiz-adv-x="1024">
<font-face units-per-em="1024" ascent="960" descent="-64" />
<missing-glyph horiz-adv-x="1024" />
<glyph unicode="&#x20;" horiz-adv-x="512" d="" />
<glyph unicode="&#xe00d;" glyph-name="pencil" data-tags="pencil, write, edit" d="M864 960c88.364 0 160-71.634 160-160 0-36.020-11.91-69.258-32-96l-64-64-224 224 64 64c26.742 20.090 59.978 32 96 32zM64 224l-64-288 288 64 592 592-224 224-592-592zM715.578 596.422l-448-448-55.156 55.156 448 448 55.156-55.156z" />
<glyph unicode="&#xe600;" glyph-name="call-to-action" data-tags="call-to-action" d="M535.064 72.454c-28.163-5.547-57.274-8.454-87.064-8.454-247.424 0-448 200.576-448 448s200.576 448 448 448c247.424 0 448-200.576 448-448 0-29.79-2.908-58.9-8.454-87.064l-61.65 18.495c4.011 22.249 6.104 45.164 6.104 68.569 0 212.077-171.923 384-384 384s-384-171.923-384-384c0-212.077 171.923-384 384-384 23.404 0 46.32 2.094 68.569 6.104l18.495-61.65zM498.033 195.889c-16.302-2.56-33.013-3.889-50.033-3.889-176.731 0-320 143.269-320 320s143.269 320 320 320c176.731 0 320-143.269 320-320 0-17.021-1.329-33.731-3.889-50.033l-62.021 18.606c1.261 10.299 1.91 20.787 1.91 31.427 0 141.385-114.615 256-256 256s-256-114.615-256-256c0-141.385 114.615-256 256-256 10.64 0 21.128 0.649 31.427 1.91l18.606-62.021zM448 512l170.667-426.667 85.333 85.333 170.667-170.667 85.333 85.333-170.667 170.667 85.333 85.333-426.667 170.667z" />
<glyph unicode="&#xe601;" glyph-name="header-logo-left" data-tags="header-logo-left" d="M127.62 960h768.76c70.371 0 127.62-57.137 127.62-127.62v-768.76c0-70.371-57.137-127.62-127.62-127.62h-768.76c-70.371 0-127.62 57.137-127.62 127.62v768.76c0 70.371 57.137 127.62 127.62 127.62zM128.438 640c-35.588 0-64.438-29.163-64.438-63.705v-512.589c0-35.184 28.797-63.705 64.438-63.705h767.124c35.588 0 64.438 29.163 64.438 63.705v512.589c0 35.184-28.797 63.705-64.438 63.705h-767.124zM864.3 832c-17.839 0-32.3-14.844-32.3-32 0-17.673 13.698-32 32.3-32h63.4c17.839 0 32.3 14.844 32.3 32 0 17.673-13.698 32-32.3 32h-63.4zM672.3 832c-17.839 0-32.3-14.844-32.3-32 0-17.673 13.698-32 32.3-32h63.4c17.839 0 32.3 14.844 32.3 32 0 17.673-13.698 32-32.3 32h-63.4zM480.3 832c-17.839 0-32.3-14.844-32.3-32 0-17.673 13.698-32 32.3-32h63.4c17.839 0 32.3 14.844 32.3 32 0 17.673-13.698 32-32.3 32h-63.4zM160 704c53.019 0 96 42.981 96 96s-42.981 96-96 96c-53.019 0-96-42.981-96-96s42.981-96 96-96z" />
<glyph unicode="&#xe602;" glyph-name="header-logo-center" data-tags="header-logo-center" d="M127.62 960h768.76c70.371 0 127.62-57.137 127.62-127.62v-768.76c0-70.371-57.137-127.62-127.62-127.62h-768.76c-70.371 0-127.62 57.137-127.62 127.62v768.76c0 70.371 57.137 127.62 127.62 127.62zM864.3 832c-17.839 0-32.3-14.844-32.3-32 0-17.673 13.698-32 32.3-32h63.4c17.839 0 32.3 14.844 32.3 32 0 17.673-13.698 32-32.3 32h-63.4zM672.3 832c-17.839 0-32.3-14.844-32.3-32 0-17.673 13.698-32 32.3-32h63.4c17.839 0 32.3 14.844 32.3 32 0 17.673-13.698 32-32.3 32h-63.4zM512 768c35.346 0 64 28.654 64 64s-28.654 64-64 64c-35.346 0-64-28.654-64-64s28.654-64 64-64zM288.3 832c-17.839 0-32.3-14.844-32.3-32 0-17.673 13.698-32 32.3-32h63.4c17.839 0 32.3 14.844 32.3 32 0 17.673-13.698 32-32.3 32h-63.4zM96.3 832c-17.839 0-32.3-14.844-32.3-32 0-17.673 13.698-32 32.3-32h63.4c17.839 0 32.3 14.844 32.3 32 0 17.673-13.698 32-32.3 32h-63.4zM128.438 640c-35.588 0-64.438-29.163-64.438-63.705v-512.589c0-35.184 28.797-63.705 64.438-63.705h767.124c35.588 0 64.438 29.163 64.438 63.705v512.589c0 35.184-28.797 63.705-64.438 63.705h-767.124z" />
<glyph unicode="&#xe603;" glyph-name="header-logo-right" data-tags="header-logo-right" d="M127.62 960h768.76c70.371 0 127.62-57.137 127.62-127.62v-768.76c0-70.371-57.137-127.62-127.62-127.62h-768.76c-70.371 0-127.62 57.137-127.62 127.62v768.76c0 70.371 57.137 127.62 127.62 127.62zM128.438 640c-35.588 0-64.438-29.163-64.438-63.705v-512.589c0-35.184 28.797-63.705 64.438-63.705h767.124c35.588 0 64.438 29.163 64.438 63.705v512.589c0 35.184-28.797 63.705-64.438 63.705h-767.124zM480.3 832c-17.839 0-32.3-14.844-32.3-32 0-17.673 13.698-32 32.3-32h63.4c17.839 0 32.3 14.844 32.3 32 0 17.673-13.698 32-32.3 32h-63.4zM288.3 832c-17.839 0-32.3-14.844-32.3-32 0-17.673 13.698-32 32.3-32h63.4c17.839 0 32.3 14.844 32.3 32 0 17.673-13.698 32-32.3 32h-63.4zM96.3 832c-17.839 0-32.3-14.844-32.3-32 0-17.673 13.698-32 32.3-32h63.4c17.839 0 32.3 14.844 32.3 32 0 17.673-13.698 32-32.3 32h-63.4zM864 704c53.019 0 96 42.981 96 96s-42.981 96-96 96c-53.019 0-96-42.981-96-96s42.981-96 96-96z" />
<glyph unicode="&#xe604;" glyph-name="header-logo-top" data-tags="header-logo-top" d="M127.62 960h768.76c70.371 0 127.62-57.137 127.62-127.62v-768.76c0-70.371-57.137-127.62-127.62-127.62h-768.76c-70.371 0-127.62 57.137-127.62 127.62v768.76c0 70.371 57.137 127.62 127.62 127.62zM128.438 576c-35.588 0-64.438-28.564-64.438-63.843v-448.314c0-35.259 28.797-63.843 64.438-63.843h767.124c35.588 0 64.438 28.564 64.438 63.843v448.314c0 35.259-28.797 63.843-64.438 63.843h-767.124zM96.3 704c-17.839 0-32.3-14.844-32.3-32 0-17.673 13.698-32 32.3-32h63.4c17.839 0 32.3 14.844 32.3 32 0 17.673-13.698 32-32.3 32h-63.4zM288.3 704c-17.839 0-32.3-14.844-32.3-32 0-17.673 13.698-32 32.3-32h63.4c17.839 0 32.3 14.844 32.3 32 0 17.673-13.698 32-32.3 32h-63.4zM480.3 704c-17.839 0-32.3-14.844-32.3-32 0-17.673 13.698-32 32.3-32h63.4c17.839 0 32.3 14.844 32.3 32 0 17.673-13.698 32-32.3 32h-63.4zM672.3 704c-17.839 0-32.3-14.844-32.3-32 0-17.673 13.698-32 32.3-32h63.4c17.839 0 32.3 14.844 32.3 32 0 17.673-13.698 32-32.3 32h-63.4zM864.3 704c-17.839 0-32.3-14.844-32.3-32 0-17.673 13.698-32 32.3-32h63.4c17.839 0 32.3 14.844 32.3 32 0 17.673-13.698 32-32.3 32h-63.4zM128 768c35.346 0 64 28.654 64 64s-28.654 64-64 64c-35.346 0-64-28.654-64-64s28.654-64 64-64z" />
<glyph unicode="&#xe605;" glyph-name="header-logo-center-top" data-tags="header-logo-center-top" d="M127.62 960h768.76c70.371 0 127.62-57.137 127.62-127.62v-768.76c0-70.371-57.137-127.62-127.62-127.62h-768.76c-70.371 0-127.62 57.137-127.62 127.62v768.76c0 70.371 57.137 127.62 127.62 127.62zM672.3 704c-17.839 0-32.3-14.844-32.3-32 0-17.673 13.698-32 32.3-32h63.4c17.839 0 32.3 14.844 32.3 32 0 17.673-13.698 32-32.3 32h-63.4zM512 768c35.346 0 64 28.654 64 64s-28.654 64-64 64c-35.346 0-64-28.654-64-64s28.654-64 64-64zM480.3 704c-17.839 0-32.3-14.844-32.3-32 0-17.673 13.698-32 32.3-32h63.4c17.839 0 32.3 14.844 32.3 32 0 17.673-13.698 32-32.3 32h-63.4zM288.3 704c-17.839 0-32.3-14.844-32.3-32 0-17.673 13.698-32 32.3-32h63.4c17.839 0 32.3 14.844 32.3 32 0 17.673-13.698 32-32.3 32h-63.4zM128.438 576c-35.588 0-64.438-28.564-64.438-63.843v-448.314c0-35.259 28.797-63.843 64.438-63.843h767.124c35.588 0 64.438 28.564 64.438 63.843v448.314c0 35.259-28.797 63.843-64.438 63.843h-767.124z" />
<glyph unicode="&#xe606;" glyph-name="header-fixed" data-tags="header-fixed" d="M127.62 960h768.76c70.371 0 127.62-57.137 127.62-127.62v-768.76c0-70.371-57.137-127.62-127.62-127.62h-768.76c-70.371 0-127.62 57.137-127.62 127.62v768.76c0 70.371 57.137 127.62 127.62 127.62zM128.438 896c-35.588 0-64.438-28.797-64.438-64.438v-767.124c0-35.588 28.797-64.438 64.438-64.438h767.124c35.588 0 64.438 28.797 64.438 64.438v767.124c0 35.588-28.797 64.438-64.438 64.438h-767.124zM800.3 768c-17.839 0-32.3-14.844-32.3-32 0-17.673 13.698-32 32.3-32h63.4c17.839 0 32.3 14.844 32.3 32 0 17.673-13.698 32-32.3 32h-63.4zM608.3 768c-17.839 0-32.3-14.844-32.3-32 0-17.673 13.698-32 32.3-32h63.4c17.839 0 32.3 14.844 32.3 32 0 17.673-13.698 32-32.3 32h-63.4zM416.3 768c-17.839 0-32.3-14.844-32.3-32 0-17.673 13.698-32 32.3-32h63.4c17.839 0 32.3 14.844 32.3 32 0 17.673-13.698 32-32.3 32h-63.4zM224 640c53.019 0 96 42.981 96 96s-42.981 96-96 96c-53.019 0-96-42.981-96-96s42.981-96 96-96z" />
<glyph unicode="&#xe607;" glyph-name="image-portrait" data-tags="image-portrait" d="M694.604 73.36c-5.664-5.736-13.429-9.36-21.995-9.36h-193.219c-17.627 0-31.391 14.327-31.391 32 0 17.156 14.054 32 31.391 32h160.609v160.609c0 17.627 14.327 31.391 32 31.391 17.156 0 32-14.054 32-31.391v-193.219c0-8.712-3.5-16.481-9.174-22.11zM329.174 822.719l0.222-0.080c5.664 5.736 13.429 9.36 21.995 9.36h193.219c17.627 0 31.391-14.327 31.391-32 0-17.156-14.054-32-31.391-32h-160.609v-160.609c0-17.627-14.327-31.391-32-31.391-17.156 0-32 14.054-32 31.391v193.219c0 8.712 3.5 16.481 9.174 22.11zM319.975 960h384.049c71.18 0 127.975-57.137 127.975-127.62v-768.76c0-70.371-57.297-127.62-127.975-127.62h-384.049c-71.18 0-127.975 57.137-127.975 127.62v768.76c0 70.371 57.297 127.62 127.975 127.62zM319.81 896c-35.241 0-63.81-28.797-63.81-64.438v-767.124c0-35.588 28.994-64.438 63.81-64.438h384.38c35.241 0 63.81 28.797 63.81 64.438v767.124c0 35.588-28.994 64.438-63.81 64.438h-384.38z" />
<glyph unicode="&#xe608;" glyph-name="image-landscape" data-tags="image-landscape" d="M886.604 265.36c-5.664-5.736-13.429-9.36-21.995-9.36h-193.219c-17.627 0-31.391 14.327-31.391 32 0 17.156 14.054 32 31.391 32h160.609v160.609c0 17.627 14.327 31.391 32 31.391 17.156 0 32-14.054 32-31.391v-193.219c0-8.712-3.5-16.481-9.174-22.11zM137.174 630.719l0.222-0.080c5.664 5.736 13.429 9.36 21.995 9.36h193.219c17.627 0 31.391-14.327 31.391-32 0-17.156-14.054-32-31.391-32h-160.609v-160.609c0-17.627-14.327-31.391-32-31.391-17.156 0-32 14.054-32 31.391v193.219c0 8.712 3.5 16.481 9.174 22.11zM127.62 768h768.76c70.371 0 127.62-57.297 127.62-127.975v-384.049c0-71.18-57.137-127.975-127.62-127.975h-768.76c-70.371 0-127.62 57.297-127.62 127.975v384.049c0 71.18 57.137 127.975 127.62 127.975zM128.438 704c-35.588 0-64.438-28.994-64.438-63.81v-384.38c0-35.241 28.797-63.81 64.438-63.81h767.124c35.588 0 64.438 28.994 64.438 63.81v384.38c0 35.241-28.797 63.81-64.438 63.81h-767.124z" />
<glyph unicode="&#xe609;" glyph-name="image-square" data-tags="image-square" d="M886.604 73.36c-5.664-5.736-13.429-9.36-21.995-9.36h-193.219c-17.627 0-31.391 14.327-31.391 32 0 17.156 14.054 32 31.391 32h160.609v160.609c0 17.627 14.327 31.391 32 31.391 17.156 0 32-14.054 32-31.391v-193.219c0-8.712-3.5-16.481-9.174-22.11zM137.174 822.719l0.222-0.080c5.664 5.736 13.429 9.36 21.995 9.36h193.219c17.627 0 31.391-14.327 31.391-32 0-17.156-14.054-32-31.391-32h-160.609v-160.609c0-17.627-14.327-31.391-32-31.391-17.156 0-32 14.054-32 31.391v193.219c0 8.712 3.5 16.481 9.174 22.11zM127.62 960h768.76c70.371 0 127.62-57.137 127.62-127.62v-768.76c0-70.371-57.137-127.62-127.62-127.62h-768.76c-70.371 0-127.62 57.137-127.62 127.62v768.76c0 70.371 57.137 127.62 127.62 127.62zM128.438 896c-35.588 0-64.438-28.797-64.438-64.438v-767.124c0-35.588 28.797-64.438 64.438-64.438h767.124c35.588 0 64.438 28.797 64.438 64.438v767.124c0 35.588-28.797 64.438-64.438 64.438h-767.124z" />
<glyph unicode="&#xe60a;" glyph-name="image-size" data-tags="image-size" d="M886.826 73.281l-0.222 0.080c-5.664-5.736-13.429-9.36-21.995-9.36h-193.219c-17.627 0-31.391 14.327-31.391 32 0 17.156 14.054 32 31.391 32h160.609v160.609c0 17.627 14.327 31.391 32 31.391 17.156 0 32-14.054 32-31.391v-193.219c0-8.712-3.5-16.481-9.174-22.11zM137.174 822.719l0.222-0.080c5.664 5.736 13.429 9.36 21.995 9.36h193.219c17.627 0 31.391-14.327 31.391-32 0-17.156-14.054-32-31.391-32h-160.609v-160.609c0-17.627-14.327-31.391-32-31.391-17.156 0-32 14.054-32 31.391v193.219c0 8.712 3.5 16.481 9.174 22.11zM127.62 960h768.76c70.371 0 127.62-57.137 127.62-127.62v-768.76c0-70.371-57.137-127.62-127.62-127.62h-768.76c-70.371 0-127.62 57.137-127.62 127.62v768.76c0 70.371 57.137 127.62 127.62 127.62zM128.438 896c-35.588 0-64.438-28.797-64.438-64.438v-767.124c0-35.588 28.797-64.438 64.438-64.438h767.124c35.588 0 64.438 28.797 64.438 64.438v767.124c0 35.588-28.797 64.438-64.438 64.438h-767.124zM512 416c17.673 0 32 14.327 32 32s-14.327 32-32 32c-17.673 0-32-14.327-32-32s14.327-32 32-32zM704 224c17.673 0 32 14.327 32 32s-14.327 32-32 32c-17.673 0-32-14.327-32-32s14.327-32 32-32zM320 608c17.673 0 32 14.327 32 32s-14.327 32-32 32c-17.673 0-32-14.327-32-32s14.327-32 32-32zM608 320c17.673 0 32 14.327 32 32s-14.327 32-32 32c-17.673 0-32-14.327-32-32s14.327-32 32-32zM416 512c17.673 0 32 14.327 32 32s-14.327 32-32 32c-17.673 0-32-14.327-32-32s14.327-32 32-32z" />
<glyph unicode="&#xe60b;" glyph-name="trash" data-tags="trash" d="M192 447.727v256.273h640v-639.454c0-70.821-57.297-128.546-127.975-128.546h-384.049c-71.18 0-127.975 57.552-127.975 128.546v383.181zM640 896h191.842c34.99 0 64.158-28.654 64.158-64 0-35.593-28.725-64-64.158-64h-639.683c-34.99 0-64.158 28.654-64.158 64 0 35.593 28.725 64 64.158 64l191.842 0.067c0 35.603 28.922 63.933 64.6 63.933h126.801c36.225 0 64.6-28.624 64.6-63.933v-0.067z" />
<glyph unicode="&#xe60c;" glyph-name="tick" data-tags="tick" d="M422.422 274.699l326.295 465.997c20.069 28.662 60.271 36.12 89.225 15.847 29.156-20.415 35.95-60.239 15.626-89.264l-366.907-523.998c-3.231-4.614-6.984-8.679-11.127-12.167-1.618-1.824-3.357-3.579-5.216-5.253-26.267-23.651-66.874-21.375-89.991 4.298l-172.087 191.122c-23.433 26.025-21.319 66.131 5.132 89.947 26.267 23.651 66.874 21.375 89.991-4.298l119.061-132.23z" />
<glyph unicode="&#xe60d;" glyph-name="cross" data-tags="cross" d="M421.49 448l-225.964 225.964c-25.202 25.202-25.303 65.826-0.31 90.819 25.168 25.168 65.655 24.855 90.819-0.31l225.964-225.964 225.964 225.964c25.202 25.202 65.826 25.303 90.819 0.31 25.168-25.168 24.855-65.655-0.31-90.819l-225.964-225.964 225.964-225.964c25.202-25.202 25.303-65.826 0.31-90.819-25.168-25.168-65.655-24.855-90.819 0.31l-225.964 225.964-225.964-225.964c-25.202-25.202-65.826-25.303-90.819-0.31-25.168 25.168-24.855 65.655 0.31 90.819l225.964 225.964z" />
<glyph unicode="&#xe60e;" glyph-name="video" data-tags="video" d="M584.562 32c11.066-19.13 31.749-32 55.438-32s44.372 12.87 55.438 32h168.54c17.685 0 32.022 14.844 32.022 32 0 17.673-14.656 32-32.022 32h-168.54c-11.066 19.13-31.749 32-55.438 32s-44.372-12.87-55.438-32h-424.54c-17.685 0-32.022-14.844-32.022-32 0-17.673 14.656-32 32.022-32h424.54zM127.62 960h768.76c70.371 0 127.62-57.137 127.62-127.62v-768.76c0-70.371-57.137-127.62-127.62-127.62h-768.76c-70.371 0-127.62 57.137-127.62 127.62v768.76c0 70.371 57.137 127.62 127.62 127.62zM128.438 896c-35.588 0-64.438-28.47-64.438-63.717v-576.566c0-35.19 28.797-63.717 64.438-63.717h767.124c35.588 0 64.438 28.47 64.438 63.717v576.566c0 35.19-28.797 63.717-64.438 63.717h-767.124zM704 544l-320 128v-256l320 128z" />
<glyph unicode="&#xe60f;" glyph-name="image-no-crop" data-tags="image-no-crop" d="M886.604 73.36c-5.664-5.736-13.429-9.36-21.995-9.36h-193.219c-17.627 0-31.391 14.327-31.391 32 0 17.156 14.054 32 31.391 32h160.609v160.609c0 17.627 14.327 31.391 32 31.391 17.156 0 32-14.054 32-31.391v-193.219c0-8.712-3.5-16.481-9.174-22.11zM137.174 73.281l0.222 0.080c5.664-5.736 13.429-9.36 21.995-9.36h193.219c17.627 0 31.391 14.327 31.391 32 0 17.156-14.054 32-31.391 32h-160.609v160.609c0 17.627-14.327 31.391-32 31.391-17.156 0-32-14.054-32-31.391v-193.219c0-8.712 3.5-16.481 9.174-22.11zM886.826 822.719l-0.222-0.080c-5.664 5.736-13.429 9.36-21.995 9.36h-193.219c-17.627 0-31.391-14.327-31.391-32 0-17.156 14.054-32 31.391-32h160.609v-160.609c0-17.627 14.327-31.391 32-31.391 17.156 0 32 14.054 32 31.391v193.219c0 8.712-3.5 16.481-9.174 22.11zM137.174 822.719l0.222-0.080c5.664 5.736 13.429 9.36 21.995 9.36h193.219c17.627 0 31.391-14.327 31.391-32 0-17.156-14.054-32-31.391-32h-160.609v-160.609c0-17.627-14.327-31.391-32-31.391-17.156 0-32 14.054-32 31.391v193.219c0 8.712 3.5 16.481 9.174 22.11zM127.62 960h768.76c70.371 0 127.62-57.137 127.62-127.62v-768.76c0-70.371-57.137-127.62-127.62-127.62h-768.76c-70.371 0-127.62 57.137-127.62 127.62v768.76c0 70.371 57.137 127.62 127.62 127.62zM128.438 896c-35.588 0-64.438-28.797-64.438-64.438v-767.124c0-35.588 28.797-64.438 64.438-64.438h767.124c35.588 0 64.438 28.797 64.438 64.438v767.124c0 35.588-28.797 64.438-64.438 64.438h-767.124z" />
<glyph unicode="&#xe610;" glyph-name="layout-boxed" data-tags="layout-boxed" d="M127.62 960h768.76c70.371 0 127.62-57.137 127.62-127.62v-768.76c0-70.371-57.137-127.62-127.62-127.62h-768.76c-70.371 0-127.62 57.137-127.62 127.62v768.76c0 70.371 57.137 127.62 127.62 127.62zM128.438 768c-35.588 0-64.438-29.169-64.438-64.158v-639.683c0-35.434 28.797-64.158 64.438-64.158h767.124c35.588 0 64.438 29.169 64.438 64.158v639.683c0 35.434-28.797 64.158-64.438 64.158h-767.124zM928 832c17.673 0 32 14.327 32 32s-14.327 32-32 32c-17.673 0-32-14.327-32-32s14.327-32 32-32zM800 832c17.673 0 32 14.327 32 32s-14.327 32-32 32c-17.673 0-32-14.327-32-32s14.327-32 32-32zM672 832c17.673 0 32 14.327 32 32s-14.327 32-32 32c-17.673 0-32-14.327-32-32s14.327-32 32-32zM383.41 704c-35.020 0-63.41-29.163-63.41-63.705v-512.589c0-35.184 28.862-63.705 63.41-63.705h257.18c35.020 0 63.41 29.163 63.41 63.705v512.589c0 35.184-28.862 63.705-63.41 63.705h-257.18z" />
<glyph unicode="&#xe611;" glyph-name="slider" data-tags="slider" d="M891.513 449.211c0.271-12.801-4.525-25.752-14.373-35.6l-202.75-202.75c-18.993-18.993-49.455-19.324-68.33-0.448-18.745 18.745-18.565 49.318 0.448 68.33l171.093 171.093-171.093 171.093c-18.993 18.993-19.324 49.455-0.448 68.33 18.745 18.745 49.318 18.565 68.33-0.448l202.75-202.75c10.173-10.173 14.992-23.637 14.373-36.849zM132.487 449.211v0c-0.619 13.211 4.2 26.675 14.373 36.849l202.75 202.75c19.013 19.013 49.585 19.193 68.33 0.448 18.876-18.876 18.544-49.338-0.448-68.33l-171.093-171.093 171.093-171.093c19.013-19.013 19.193-49.585 0.448-68.33-18.876-18.876-49.338-18.544-68.33 0.448l-202.75 202.75c-9.849 9.849-14.644 22.799-14.373 35.6zM127.62 960c-70.483 0-127.62-57.249-127.62-127.62v-768.76c0-70.483 57.249-127.62 127.62-127.62h768.76c70.483 0 127.62 57.249 127.62 127.62v768.76c0 70.483-57.249 127.62-127.62 127.62h-768.76z" />
<glyph unicode="&#xe612;" glyph-name="advanced-layout-left" data-tags="advanced-layout-left" d="M127.62 960h768.76c70.371 0 127.62-57.137 127.62-127.62v-768.76c0-70.371-57.137-127.62-127.62-127.62h-768.76c-70.371 0-127.62 57.137-127.62 127.62v768.76c0 70.371 57.137 127.62 127.62 127.62zM383.705 896c-35.184 0-63.705-28.797-63.705-64.438v-767.124c0-35.588 29.163-64.438 63.705-64.438h512.589c35.184 0 63.705 28.797 63.705 64.438v767.124c0 35.588-29.163 64.438-63.705 64.438h-512.589zM800.576 768c17.355 0 31.424-14.844 31.424-32 0-17.673-14.584-32-31.424-32h-321.151c-17.355 0-31.424 14.844-31.424 32 0 17.673 14.584 32 31.424 32h321.151zM672.609 640c17.337 0 31.391-14.844 31.391-32 0-17.673-13.764-32-31.391-32h-193.219c-17.337 0-31.391 14.844-31.391 32 0 17.673 13.764 32 31.391 32h193.219zM800.576 512c17.355 0 31.424-14.844 31.424-32 0-17.673-14.584-32-31.424-32h-321.151c-17.355 0-31.424 14.844-31.424 32 0 17.673 14.584 32 31.424 32h321.151z" />
<glyph unicode="&#xe613;" glyph-name="advanced-layout-top" data-tags="advanced-layout-top" d="M127.62 960h768.76c70.371 0 127.62-57.137 127.62-127.62v-768.76c0-70.371-57.137-127.62-127.62-127.62h-768.76c-70.371 0-127.62 57.137-127.62 127.62v768.76c0 70.371 57.137 127.62 127.62 127.62zM128.438 576c-35.588 0-64.438-28.564-64.438-63.843v-448.314c0-35.259 28.797-63.843 64.438-63.843h767.124c35.588 0 64.438 28.564 64.438 63.843v448.314c0 35.259-28.797 63.843-64.438 63.843h-767.124zM735.972 448c17.689 0 32.028-14.844 32.028-32 0-17.673-14.771-32-32.028-32h-447.944c-17.689 0-32.028 14.844-32.028 32 0 17.673 14.771 32 32.028 32h447.944zM671.781 320c17.794 0 32.219-14.844 32.219-32 0-17.673-14.906-32-32.219-32h-383.562c-17.794 0-32.219 14.844-32.219 32 0 17.673 14.906 32 32.219 32h383.562zM735.972 192c17.689 0 32.028-14.844 32.028-32 0-17.673-14.771-32-32.028-32h-447.944c-17.689 0-32.028 14.844-32.028 32 0 17.673 14.771 32 32.028 32h447.944z" />
<glyph unicode="&#xe614;" glyph-name="advanced-layout-right" data-tags="advanced-layout-right" d="M127.62 960h768.76c70.371 0 127.62-57.137 127.62-127.62v-768.76c0-70.371-57.137-127.62-127.62-127.62h-768.76c-70.371 0-127.62 57.137-127.62 127.62v768.76c0 70.371 57.137 127.62 127.62 127.62zM127.705 896c-35.184 0-63.705-28.797-63.705-64.438v-767.124c0-35.588 29.163-64.438 63.705-64.438h512.589c35.184 0 63.705 28.797 63.705 64.438v767.124c0 35.588-29.163 64.438-63.705 64.438h-512.589zM544.576 768c17.355 0 31.424-14.844 31.424-32 0-17.673-14.584-32-31.424-32h-321.151c-17.355 0-31.424 14.844-31.424 32 0 17.673 14.584 32 31.424 32h321.151zM416.609 640c17.337 0 31.391-14.844 31.391-32 0-17.673-13.764-32-31.391-32h-193.219c-17.337 0-31.391 14.844-31.391 32 0 17.673 13.764 32 31.391 32h193.219zM544.576 512c17.355 0 31.424-14.844 31.424-32 0-17.673-14.584-32-31.424-32h-321.151c-17.355 0-31.424 14.844-31.424 32 0 17.673 14.584 32 31.424 32h321.151z" />
<glyph unicode="&#xe615;" glyph-name="font-size" data-tags="font-size" d="M761.895 180.44l-236.871 566.372c-23.199 55.394-85.469 89.308-147.739 84.786-57.386 0-112.331-33.914-133.087-84.786l-238.092-566.372c-4.884-10.174-6.105-20.349-6.105-30.523 0-42.958 36.63-85.917 91.574-85.917 37.851 0 72.038 20.349 85.469 53.133l37.419 85.107h349.202l27.293-85.107c13.431-32.784 47.618-53.133 84.248-53.133 56.165 0 92.795 44.089 92.795 85.917 0 10.174-2.442 20.349-6.105 30.523zM512 355.84h-256l128 307.496 128-307.496zM1011.2 548.48v163.2c0 88.96-64.64 117.12-135.040 117.12-35.84 0-104.96-12.8-124.16-43.52-2.56-4.48-4.48-10.24-4.48-16 0-19.2 16-31.36 30.72-31.36 5.12 0 10.24 1.92 14.72 4.48 21.12 14.080 44.8 19.84 69.12 19.84 40.96 0 67.84-20.48 67.84-51.84v-41.6c-20.48 24.32-56.96 37.76-97.92 37.76-49.28 0-107.52-27.52-107.52-99.84 0-69.12 58.24-102.4 107.52-102.4 40.32 0 76.8 14.72 97.92 39.68 0-30.72 28.8-35.84 35.2-35.84h6.4c21.76 0 39.68 17.92 39.68 40.32zM929.92 586.24c-13.44-17.92-39.040-26.88-65.28-26.88-32 0-58.24 16.64-58.24 45.44 0 30.080 26.24 46.72 58.24 46.72 26.24 0 51.84-8.96 65.28-26.88v-38.4z" />
<glyph unicode="&#xe616;" glyph-name="display" data-tags="display" d="M0 456.064c0 0 146.126 375.936 515.981 375.936s508.019-381.555 508.019-381.555c0 0-138.575-386.445-508.224-386.445s-515.776 392.064-515.776 392.064zM512 128c176.731 0 320 143.269 320 320s-143.269 320-320 320c-176.731 0-320-143.269-320-320s143.269-320 320-320zM512 320c70.692 0 128 57.308 128 128s-57.308 128-128 128c-70.692 0-128-57.308-128-128s57.308-128 128-128z" />
<glyph unicode="&#xe617;" glyph-name="text-left" data-tags="text-left" d="M95.889 640c-17.612 0-31.889-14.844-31.889-32v0c0-17.673 14.074-32 31.889-32h832.222c17.612 0 31.889 14.844 31.889 32v0c0 17.673-14.074 32-31.889 32h-832.222zM96.546 512c-17.975 0-32.546-14.844-32.546-32v0c0-17.673 14.538-32 32.546-32h573.502c17.975 0 32.546 14.844 32.546 32v0c0 17.673-14.538 32-32.546 32h-573.502zM95.889 384c-17.612 0-31.889-14.844-31.889-32v0c0-17.673 14.074-32 31.889-32h832.222c17.612 0 31.889 14.844 31.889 32v0c0 17.673-14.074 32-31.889 32h-832.222zM96.546 256c-17.975 0-32.546-14.844-32.546-32v0c0-17.673 14.538-32 32.546-32h573.502c17.975 0 32.546 14.844 32.546 32v0c0 17.673-14.538 32-32.546 32h-573.502z" />
<glyph unicode="&#xe618;" glyph-name="text-center" data-tags="text-center" d="M95.889 640c-17.612 0-31.889-14.844-31.889-32v0c0-17.673 14.074-32 31.889-32h832.222c17.612 0 31.889 14.844 31.889 32v0c0 17.673-14.074 32-31.889 32h-832.222zM224.618 512c-18.014 0-32.618-14.844-32.618-32v0c0-17.673 14.57-32 32.618-32h574.765c18.014 0 32.618 14.844 32.618 32v0c0 17.673-14.57 32-32.618 32h-574.765zM95.889 384c-17.612 0-31.889-14.844-31.889-32v0c0-17.673 14.074-32 31.889-32h832.222c17.612 0 31.889 14.844 31.889 32v0c0 17.673-14.074 32-31.889 32h-832.222zM224.618 256c-18.014 0-32.618-14.844-32.618-32v0c0-17.673 14.57-32 32.618-32h574.765c18.014 0 32.618 14.844 32.618 32v0c0 17.673-14.57 32-32.618 32h-574.765z" />
<glyph unicode="&#xe619;" glyph-name="text-right" data-tags="text-right" d="M95.889 640c-17.612 0-31.889-14.844-31.889-32v0c0-17.673 14.074-32 31.889-32h832.222c17.612 0 31.889 14.844 31.889 32v0c0 17.673-14.074 32-31.889 32h-832.222zM352.618 512c-18.014 0-32.618-14.844-32.618-32v0c0-17.673 14.57-32 32.618-32h574.765c18.014 0 32.618 14.844 32.618 32v0c0 17.673-14.57 32-32.618 32h-574.765zM95.889 384c-17.612 0-31.889-14.844-31.889-32v0c0-17.673 14.074-32 31.889-32h832.222c17.612 0 31.889 14.844 31.889 32v0c0 17.673-14.074 32-31.889 32h-832.222zM352.618 256c-18.014 0-32.618-14.844-32.618-32v0c0-17.673 14.57-32 32.618-32h574.765c18.014 0 32.618 14.844 32.618 32v0c0 17.673-14.57 32-32.618 32h-574.765z" />
<glyph unicode="&#xe61a;" glyph-name="text-justify" data-tags="text-justify" d="M95.889 640c-17.612 0-31.889-14.844-31.889-32v0c0-17.673 14.074-32 31.889-32h832.222c17.612 0 31.889 14.844 31.889 32v0c0 17.673-14.074 32-31.889 32h-832.222zM95.889 512c-17.612 0-31.889-14.844-31.889-32v0c0-17.673 14.074-32 31.889-32h832.222c17.612 0 31.889 14.844 31.889 32v0c0 17.673-14.074 32-31.889 32h-832.222zM95.889 384c-17.612 0-31.889-14.844-31.889-32v0c0-17.673 14.074-32 31.889-32h832.222c17.612 0 31.889 14.844 31.889 32v0c0 17.673-14.074 32-31.889 32h-832.222zM95.889 256c-17.612 0-31.889-14.844-31.889-32v0c0-17.673 14.074-32 31.889-32h832.222c17.612 0 31.889 14.844 31.889 32v0c0 17.673-14.074 32-31.889 32h-832.222z" />
<glyph unicode="&#xe61b;" glyph-name="image-left" data-tags="image-left" d="M63.81 704c-35.241 0-63.81-28.994-63.81-63.81v-384.38c0-35.241 28.994-63.81 63.81-63.81h384.38c35.241 0 63.81 28.994 63.81 63.81v384.38c0 35.241-28.994 63.81-63.81 63.81h-384.38zM671.424 576c-17.355 0-31.424-14.844-31.424-32 0-17.673 14.584-32 31.424-32h321.151c17.355 0 31.424 14.844 31.424 32 0 17.673-14.584 32-31.424 32h-321.151zM671.391 448c-17.337 0-31.391-14.844-31.391-32 0-17.673 13.764-32 31.391-32h193.219c17.337 0 31.391 14.844 31.391 32 0 17.673-13.764 32-31.391 32h-193.219z" />
<glyph unicode="&#xe61c;" glyph-name="image-top" data-tags="image-top" d="M704.19 832c35.241 0 63.81-28.994 63.81-63.81v-384.38c0-35.241-28.994-63.81-63.81-63.81h-384.38c-35.241 0-63.81 28.994-63.81 63.81v384.38c0 35.241 28.994 63.81 63.81 63.81h384.38zM672.576 256c17.355 0 31.424-14.844 31.424-32v0c0-17.673-14.584-32-31.424-32h-321.151c-17.355 0-31.424 14.844-31.424 32v0c0 17.673 14.584 32 31.424 32h321.151zM608.609 128c17.337 0 31.391-14.844 31.391-32v0c0-17.673-13.764-32-31.391-32h-193.219c-17.337 0-31.391 14.844-31.391 32v0c0 17.673 13.764 32 31.391 32h193.219z" />
<glyph unicode="&#xe61d;" glyph-name="image-right" data-tags="image-right" d="M960.19 704c35.241 0 63.81-28.994 63.81-63.81v-384.38c0-35.241-28.994-63.81-63.81-63.81h-384.38c-35.241 0-63.81 28.994-63.81 63.81v384.38c0 35.241 28.994 63.81 63.81 63.81h384.38zM352.576 576c17.355 0 31.424-14.844 31.424-32 0-17.673-14.584-32-31.424-32h-321.151c-17.355 0-31.424 14.844-31.424 32 0 17.673 14.584 32 31.424 32h321.151zM224.609 448c17.337 0 31.391-14.844 31.391-32 0-17.673-13.764-32-31.391-32h-193.219c-17.337 0-31.391 14.844-31.391 32 0 17.673 13.764 32 31.391 32h193.219z" />
<glyph unicode="&#xe61e;" glyph-name="list-list" data-tags="list-list" d="M64.056 960c-35.377 0-64.056-28.375-64.056-64.6v-126.801c0-35.677 28.456-64.6 64.056-64.6h895.888c35.377 0 64.056 28.375 64.056 64.6v126.801c0 35.677-28.456 64.6-64.056 64.6h-895.888zM64.056 192c-35.377 0-64.056-28.375-64.056-64.6v-126.801c0-35.677 28.456-64.6 64.056-64.6h895.888c35.377 0 64.056 28.375 64.056 64.6v126.801c0 35.677-28.456 64.6-64.056 64.6h-895.888zM64.056 576c-35.377 0-64.056-28.375-64.056-64.6v-126.801c0-35.677 28.456-64.6 64.056-64.6h895.888c35.377 0 64.056 28.375 64.056 64.6v126.801c0 35.677-28.456 64.6-64.056 64.6h-895.888z" />
<glyph unicode="&#xe61f;" glyph-name="columns" data-tags="columns" d="M64 960h128c35.346 0 64-28.654 64-64v-896c0-35.346-28.654-64-64-64h-128c-35.346 0-64 28.654-64 64v896c0 35.346 28.654 64 64 64zM832 960h128c35.346 0 64-28.654 64-64v-896c0-35.346-28.654-64-64-64h-128c-35.346 0-64 28.654-64 64v896c0 35.346 28.654 64 64 64zM448 960h128c35.346 0 64-28.654 64-64v-896c0-35.346-28.654-64-64-64h-128c-35.346 0-64 28.654-64 64v896c0 35.346 28.654 64 64 64z" />
<glyph unicode="&#xe620;" glyph-name="list-grid" data-tags="list-grid" d="M64.6 960c-35.677 0-64.6-28.375-64.6-64.6v-126.801c0-35.677 28.375-64.6 64.6-64.6h126.801c35.677 0 64.6 28.375 64.6 64.6v126.801c0 35.677-28.375 64.6-64.6 64.6h-126.801zM64.6 576c-35.677 0-64.6-28.375-64.6-64.6v-126.801c0-35.677 28.375-64.6 64.6-64.6h126.801c35.677 0 64.6 28.375 64.6 64.6v126.801c0 35.677-28.375 64.6-64.6 64.6h-126.801zM64.6 192c-35.677 0-64.6-28.375-64.6-64.6v-126.801c0-35.677 28.375-64.6 64.6-64.6h126.801c35.677 0 64.6 28.375 64.6 64.6v126.801c0 35.677-28.375 64.6-64.6 64.6h-126.801zM448.6 960c-35.677 0-64.6-28.375-64.6-64.6v-126.801c0-35.677 28.375-64.6 64.6-64.6h126.801c35.677 0 64.6 28.375 64.6 64.6v126.801c0 35.677-28.375 64.6-64.6 64.6h-126.801zM448.6 576c-35.677 0-64.6-28.375-64.6-64.6v-126.801c0-35.677 28.375-64.6 64.6-64.6h126.801c35.677 0 64.6 28.375 64.6 64.6v126.801c0 35.677-28.375 64.6-64.6 64.6h-126.801zM448.6 192c-35.677 0-64.6-28.375-64.6-64.6v-126.801c0-35.677 28.375-64.6 64.6-64.6h126.801c35.677 0 64.6 28.375 64.6 64.6v126.801c0 35.677-28.375 64.6-64.6 64.6h-126.801zM832.6 960c-35.677 0-64.6-28.375-64.6-64.6v-126.801c0-35.677 28.375-64.6 64.6-64.6h126.801c35.677 0 64.6 28.375 64.6 64.6v126.801c0 35.677-28.375 64.6-64.6 64.6h-126.801zM832.6 576c-35.677 0-64.6-28.375-64.6-64.6v-126.801c0-35.677 28.375-64.6 64.6-64.6h126.801c35.677 0 64.6 28.375 64.6 64.6v126.801c0 35.677-28.375 64.6-64.6 64.6h-126.801zM832.6 192c-35.677 0-64.6-28.375-64.6-64.6v-126.801c0-35.677 28.375-64.6 64.6-64.6h126.801c35.677 0 64.6 28.375 64.6 64.6v126.801c0 35.677-28.375 64.6-64.6 64.6h-126.801z" />
<glyph unicode="&#xe621;" glyph-name="list-masonry" data-tags="list-masonry" d="M64.6 960c-35.677 0-64.6-28.375-64.6-64.6v-126.801c0-35.677 28.375-64.6 64.6-64.6h126.801c35.677 0 64.6 28.375 64.6 64.6v126.801c0 35.677-28.375 64.6-64.6 64.6h-126.801zM64.6 576c-35.677 0-64.6-29.163-64.6-63.705v-512.589c0-35.184 28.375-63.705 64.6-63.705h126.801c35.677 0 64.6 29.163 64.6 63.705v512.589c0 35.184-28.375 63.705-64.6 63.705h-126.801zM832.6 960c-35.677 0-64.6-28.862-64.6-63.41v-257.18c0-35.020 28.375-63.41 64.6-63.41h126.801c35.677 0 64.6 28.862 64.6 63.41v257.18c0 35.020-28.375 63.41-64.6 63.41h-126.801zM832.6 448c-35.677 0-64.6-28.994-64.6-63.81v-384.38c0-35.241 28.375-63.81 64.6-63.81h126.801c35.677 0 64.6 28.994 64.6 63.81v384.38c0 35.241-28.375 63.81-64.6 63.81h-126.801zM448.6 960c-35.677 0-64.6-28.994-64.6-63.81v-384.38c0-35.241 28.375-63.81 64.6-63.81h126.801c35.677 0 64.6 28.994 64.6 63.81v384.38c0 35.241-28.375 63.81-64.6 63.81h-126.801zM448.6 320c-35.677 0-64.6-28.862-64.6-63.41v-257.18c0-35.020 28.375-63.41 64.6-63.41h126.801c35.677 0 64.6 28.862 64.6 63.41v257.18c0 35.020-28.375 63.41-64.6 63.41h-126.801z" />
<glyph unicode="&#xe622;" glyph-name="photo" data-tags="photo" d="M64 324.548v507.014c0 35.641 28.85 64.438 64.438 64.438h767.124c35.641 0 64.438-28.85 64.438-64.438v-597.523l-146.88 146.88c-24.919 24.919-65.623 24.618-90.241 0l-101.625-101.625-256.208 256.208c-24.879 24.879-65.668 24.426-90.093 0l-210.953-210.953zM768 576c70.692 0 128 57.308 128 128s-57.308 128-128 128c-70.692 0-128-57.308-128-128s57.308-128 128-128zM127.62 960c-70.483 0-127.62-57.249-127.62-127.62v-768.76c0-70.483 57.249-127.62 127.62-127.62h768.76c70.483 0 127.62 57.249 127.62 127.62v768.76c0 70.483-57.249 127.62-127.62 127.62h-768.76z" />
<glyph unicode="&#xe623;" glyph-name="settings" data-tags="settings" d="M448 447.997v447.947c0 35.599 28.654 64.056 64 64.056 35.593 0 64-28.679 64-64.056v-447.947c35.938-0.311 64-28.58 64-63.407v-257.18c0-34.354-28.599-63.086-64-63.407v-63.947c0-35.599-28.654-64.056-64-64.056-35.593 0-64 28.679-64 64.056v63.947c-35.938 0.311-64 28.58-64 63.407v257.18c0 34.354 28.599 63.086 64 63.407v0zM64 831.997v63.947c0 35.599 28.654 64.056 64 64.056 35.593 0 64-28.679 64-64.056v-63.947c35.938-0.311 64-28.58 64-63.407v-257.18c0-34.354-28.599-63.086-64-63.407v-447.947c0-35.599-28.654-64.056-64-64.056-35.593 0-64 28.679-64 64.056v447.947c-35.938 0.311-64 28.58-64 63.407v257.18c0 34.354 28.599 63.086 64 63.407v0zM832 831.997v63.947c0 35.599 28.654 64.056 64 64.056 35.593 0 64-28.679 64-64.056v-63.947c35.938-0.311 64-28.58 64-63.407v-257.18c0-34.354-28.599-63.086-64-63.407v-447.947c0-35.599-28.654-64.056-64-64.056-35.593 0-64 28.679-64 64.056v447.947c-35.938 0.311-64 28.58-64 63.407v257.18c0 34.354 28.599 63.086 64 63.407v0zM832 768v-256h128v256h-128zM64 768v-256h128v256h-128zM448 384v-256h128v256h-128z" />
<glyph unicode="&#xe624;" glyph-name="arrow-up" data-tags="arrow-up" d="M448 475.452l-73.124-73.124c-24.763-24.763-64.925-24.75-90.092 0.417-24.994 24.994-24.846 65.664-0.417 90.092l181.854 181.854c21.492 21.492 54.582 24.321 79.402 8.241 5.365-2.839 10.382-6.498 14.855-10.971l181.854-181.854c24.763-24.763 24.75-64.925-0.417-90.092-24.994-24.994-65.664-24.846-90.092-0.417l-75.822 75.822v-470.884c217.107 31.055 384 217.769 384 443.463 0 247.424-200.576 448-448 448s-448-200.576-448-448c0-225.694 166.893-412.408 384-443.463v470.915zM1024 448c0-282.77-229.23-512-512-512s-512 229.23-512 512c0 282.77 229.23 512 512 512s512-229.23 512-512z" />
<glyph unicode="&#xe625;" glyph-name="arrow-down" data-tags="arrow-down" d="M576 420.548l73.124 73.124c24.763 24.763 64.925 24.75 90.092-0.417 24.994-24.994 24.846-65.664 0.417-90.092l-181.854-181.854c-21.492-21.492-54.582-24.321-79.402-8.241-5.365 2.839-10.382 6.498-14.855 10.971l-181.854 181.854c-24.763 24.763-24.75 64.925 0.417 90.092 24.994 24.994 65.664 24.846 90.092 0.417l75.822-75.822v470.884c-217.107-31.055-384-217.769-384-443.463 0-247.424 200.576-448 448-448s448 200.576 448 448c0 225.694-166.893 412.408-384 443.463v-470.915zM0 448c0 282.77 229.23 512 512 512s512-229.23 512-512c0-282.77-229.23-512-512-512s-512 229.23-512 512z" />
<glyph unicode="&#xe626;" glyph-name="arrow-left" data-tags="arrow-left" d="M484.548 512l73.124 73.124c24.763 24.763 24.75 64.925-0.417 90.092-24.994 24.994-65.664 24.846-90.092 0.417l-181.854-181.854c-21.492-21.492-24.321-54.582-8.241-79.402 2.839-5.365 6.498-10.382 10.971-14.855l181.854-181.854c24.763-24.763 64.925-24.75 90.092 0.417 24.994 24.994 24.846 65.664 0.417 90.092l-75.822 75.822h470.884c-31.055-217.107-217.769-384-443.463-384-247.424 0-448 200.576-448 448s200.576 448 448 448c225.694 0 412.408-166.893 443.463-384h-470.915zM512-64c282.77 0 512 229.23 512 512s-229.23 512-512 512c-282.77 0-512-229.23-512-512s229.23-512 512-512z" />
<glyph unicode="&#xe627;" glyph-name="layout-full-screen" data-tags="layout-full-screen" d="M127.62 960h768.76c70.371 0 127.62-57.137 127.62-127.62v-768.76c0-70.371-57.137-127.62-127.62-127.62h-768.76c-70.371 0-127.62 57.137-127.62 127.62v768.76c0 70.371 57.137 127.62 127.62 127.62zM128.438 768c-35.588 0-64.438-29.169-64.438-64.158v-639.683c0-35.434 28.797-64.158 64.438-64.158h767.124c35.588 0 64.438 29.169 64.438 64.158v639.683c0 35.434-28.797 64.158-64.438 64.158h-767.124zM928 832c17.673 0 32 14.327 32 32s-14.327 32-32 32c-17.673 0-32-14.327-32-32s14.327-32 32-32zM800 832c17.673 0 32 14.327 32 32s-14.327 32-32 32c-17.673 0-32-14.327-32-32s14.327-32 32-32zM672 832c17.673 0 32 14.327 32 32s-14.327 32-32 32c-17.673 0-32-14.327-32-32s14.327-32 32-32zM192.158 704c-35.434 0-64.158-29.163-64.158-63.705v-512.589c0-35.184 29.169-63.705 64.158-63.705h639.683c35.434 0 64.158 29.163 64.158 63.705v512.589c0 35.184-29.169 63.705-64.158 63.705h-639.683z" />
<glyph unicode="&#xe628;" glyph-name="layout-fullwidth" data-tags="layout-fullwidth" d="M127.62 960h768.76c70.371 0 127.62-57.137 127.62-127.62v-768.76c0-70.371-57.137-127.62-127.62-127.62h-768.76c-70.371 0-127.62 57.137-127.62 127.62v768.76c0 70.371 57.137 127.62 127.62 127.62zM128.438 768c-35.588 0-64.438-29.169-64.438-64.158v-639.683c0-35.434 28.797-64.158 64.438-64.158h767.124c35.588 0 64.438 29.169 64.438 64.158v639.683c0 35.434-28.797 64.158-64.438 64.158h-767.124zM928 832c17.673 0 32 14.327 32 32s-14.327 32-32 32c-17.673 0-32-14.327-32-32s14.327-32 32-32zM800 832c17.673 0 32 14.327 32 32s-14.327 32-32 32c-17.673 0-32-14.327-32-32s14.327-32 32-32zM672 832c17.673 0 32 14.327 32 32s-14.327 32-32 32c-17.673 0-32-14.327-32-32s14.327-32 32-32zM192.158 576c-35.434 0-64.158-28.862-64.158-63.41v-257.18c0-35.020 29.169-63.41 64.158-63.41h639.683c35.434 0 64.158 28.862 64.158 63.41v257.18c0 35.020-29.169 63.41-64.158 63.41h-639.683z" />
<glyph unicode="&#xe629;" glyph-name="featured-image" data-tags="featured-image" d="M704.031 704h255.913c35.599 0 64.056-28.583 64.056-63.843v-448.314c0-35.279-28.679-63.843-64.056-63.843h-895.888c-35.599 0-64.056 28.583-64.056 63.843v448.314c0 35.26 28.649 63.813 64 63.843v0c0 35.593 28.654 64 64 64 35.593 0 64-28.654 64-64h127.969c53.488 40.186 119.978 64 192.031 64s138.544-23.814 192.031-64v0zM512 192c141.385 0 256 114.615 256 256s-114.615 256-256 256c-141.385 0-256-114.615-256-256s114.615-256 256-256zM512 256c106.039 0 192 85.961 192 192s-85.961 192-192 192c-106.039 0-192-85.961-192-192s85.961-192 192-192zM896 192c35.346 0 64 28.654 64 64s-28.654 64-64 64c-35.346 0-64-28.654-64-64s28.654-64 64-64zM96.3 640c-17.839 0-32.3-14.844-32.3-32 0-17.673 13.698-32 32.3-32h63.4c17.839 0 32.3 14.844 32.3 32 0 17.673-13.698 32-32.3 32h-63.4z" />
<glyph unicode="&#xe62a;" glyph-name="advanced-layout-full" data-tags="advanced-layout-full" d="M127.62 960h768.76c70.371 0 127.62-57.137 127.62-127.62v-768.76c0-70.371-57.137-127.62-127.62-127.62h-768.76c-70.371 0-127.62 57.137-127.62 127.62v768.76c0 70.371 57.137 127.62 127.62 127.62zM128.438 896c-35.588 0-64.438-28.797-64.438-64.438v-767.124c0-35.588 28.797-64.438 64.438-64.438h767.124c35.588 0 64.438 28.797 64.438 64.438v767.124c0 35.588-28.797 64.438-64.438 64.438h-767.124zM799.463 768c17.97 0 32.537-14.844 32.537-32 0-17.673-14.534-32-32.537-32h-573.348c-17.97 0-32.537 14.844-32.537 32 0 17.673 14.534 32 32.537 32h573.348zM587.202 640c17.668 0 31.99-14.844 31.99-32 0-17.673-14.161-32-31.99-32h-361.634c-17.668 0-31.99 14.844-31.99 32 0 17.673 14.161 32 31.99 32h361.634zM799.463 512c17.97 0 32.537-14.844 32.537-32 0-17.673-14.534-32-32.537-32h-573.348c-17.97 0-32.537 14.844-32.537 32 0 17.673 14.534 32 32.537 32h573.348z" />
<glyph unicode="&#xe62b;" glyph-name="image-round" data-tags="image-round" d="M512-64c-282.77 0-512 229.23-512 512s229.23 512 512 512c282.77 0 512-229.23 512-512s-229.23-512-512-512zM512 0c247.424 0 448 200.576 448 448s-200.576 448-448 448c-247.424 0-448-200.576-448-448s200.576-448 448-448zM512 736v64c-209.673 0-352-142.327-352-352h64c0 174.327 113.673 288 288 288zM512 160v-64c209.673 0 352 142.327 352 352h-64c0-174.327-113.673-288-288-288z" />
<glyph unicode="&#xe62c;" glyph-name="sidebar-left-right" data-tags="sidebar-left-right" d="M127.62 960h768.76c70.371 0 127.62-57.137 127.62-127.62v-768.76c0-70.371-57.137-127.62-127.62-127.62h-768.76c-70.371 0-127.62 57.137-127.62 127.62v768.76c0 70.371 57.137 127.62 127.62 127.62zM127.933 768c-35.309 0-63.933-29.169-63.933-64.158v-639.683c0-35.434 28.33-64.158 63.933-64.158h64.134c35.309 0 63.933 29.169 63.933 64.158v639.683c0 35.434-28.33 64.158-63.933 64.158h-64.134zM928 832c17.673 0 32 14.327 32 32s-14.327 32-32 32c-17.673 0-32-14.327-32-32s14.327-32 32-32zM800 832c17.673 0 32 14.327 32 32s-14.327 32-32 32c-17.673 0-32-14.327-32-32s14.327-32 32-32zM672 832c17.673 0 32 14.327 32 32s-14.327 32-32 32c-17.673 0-32-14.327-32-32s14.327-32 32-32zM831.933 768c-35.309 0-63.933-29.169-63.933-64.158v-639.683c0-35.434 28.33-64.158 63.933-64.158h64.134c35.309 0 63.933 29.169 63.933 64.158v639.683c0 35.434-28.33 64.158-63.933 64.158h-64.134zM383.41 768c-35.020 0-63.41-29.169-63.41-64.158v-639.683c0-35.434 28.862-64.158 63.41-64.158h257.18c35.020 0 63.41 29.169 63.41 64.158v639.683c0 35.434-28.862 64.158-63.41 64.158h-257.18z" />
<glyph unicode="&#xe62d;" glyph-name="sidebar-left" data-tags="sidebar-left" d="M127.62 960h768.76c70.371 0 127.62-57.137 127.62-127.62v-768.76c0-70.371-57.137-127.62-127.62-127.62h-768.76c-70.371 0-127.62 57.137-127.62 127.62v768.76c0 70.371 57.137 127.62 127.62 127.62zM127.933 768c-35.309 0-63.933-29.169-63.933-64.158v-639.683c0-35.434 28.33-64.158 63.933-64.158h64.134c35.309 0 63.933 29.169 63.933 64.158v639.683c0 35.434-28.33 64.158-63.933 64.158h-64.134zM928 832c17.673 0 32 14.327 32 32s-14.327 32-32 32c-17.673 0-32-14.327-32-32s14.327-32 32-32zM800 832c17.673 0 32 14.327 32 32s-14.327 32-32 32c-17.673 0-32-14.327-32-32s14.327-32 32-32zM672 832c17.673 0 32 14.327 32 32s-14.327 32-32 32c-17.673 0-32-14.327-32-32s14.327-32 32-32zM383.705 768c-35.184 0-63.705-29.169-63.705-64.158v-639.683c0-35.434 29.163-64.158 63.705-64.158h512.589c35.184 0 63.705 29.169 63.705 64.158v639.683c0 35.434-29.163 64.158-63.705 64.158h-512.589z" />
<glyph unicode="&#xe62e;" glyph-name="sidebar-right" data-tags="sidebar-right" d="M127.62 960h768.76c70.371 0 127.62-57.137 127.62-127.62v-768.76c0-70.371-57.137-127.62-127.62-127.62h-768.76c-70.371 0-127.62 57.137-127.62 127.62v768.76c0 70.371 57.137 127.62 127.62 127.62zM127.705 768c-35.184 0-63.705-29.169-63.705-64.158v-639.683c0-35.434 29.163-64.158 63.705-64.158h512.589c35.184 0 63.705 29.169 63.705 64.158v639.683c0 35.434-29.163 64.158-63.705 64.158h-512.589zM928 832c17.673 0 32 14.327 32 32s-14.327 32-32 32c-17.673 0-32-14.327-32-32s14.327-32 32-32zM800 832c17.673 0 32 14.327 32 32s-14.327 32-32 32c-17.673 0-32-14.327-32-32s14.327-32 32-32zM672 832c17.673 0 32 14.327 32 32s-14.327 32-32 32c-17.673 0-32-14.327-32-32s14.327-32 32-32zM831.933 768c-35.309 0-63.933-29.169-63.933-64.158v-639.683c0-35.434 28.33-64.158 63.933-64.158h64.134c35.309 0 63.933 29.169 63.933 64.158v639.683c0 35.434-28.33 64.158-63.933 64.158h-64.134z" />
<glyph unicode="&#xe62f;" glyph-name="layers-logo" data-tags="layers-logo" d="M853.333 512l119.702-89.777c28.147-21.11 27.634-55.721 0-76.447l-410.071-307.553c-28.147-21.11-74.294-20.726-101.929 0l-410.071 307.553c-28.147 21.11-27.634 55.721 0 76.447l119.702 89.777 341.333-256 341.333 256zM486.518 876.888c14.073 10.555 36.482 10.862 50.964 0l205.036-153.777c14.073-10.555 14.482-27.362 0-38.223l-205.036-153.777c-14.073-10.555-36.482-10.862-50.964 0l-205.036 153.777c-14.073 10.555-14.482 27.362 0 38.223l205.036 153.777z" />
<glyph unicode="&#xe630;" glyph-name="arrow-right" data-tags="arrow-right" d="M539.452 512l-73.124 73.124c-24.763 24.763-24.75 64.925 0.417 90.092 24.994 24.994 65.664 24.846 90.092 0.417l181.854-181.854c21.492-21.492 24.321-54.582 8.241-79.402-2.839-5.365-6.498-10.382-10.971-14.855l-181.854-181.854c-24.763-24.763-64.925-24.75-90.092 0.417-24.994 24.994-24.846 65.664-0.417 90.092l75.822 75.822h-470.884c31.055-217.107 217.769-384 443.463-384 247.424 0 448 200.576 448 448s-200.576 448-448 448c-225.694 0-412.408-166.893-443.463-384h470.915zM512-64c-282.77 0-512 229.23-512 512s229.23 512 512 512c282.77 0 512-229.23 512-512s-229.23-512-512-512z" />
<glyph unicode="&#xe632;" glyph-name="desktop" data-tags="desktop" d="M480 192h-352.38c-70.371 0-127.62 57.552-127.62 128.546v510.908c0 70.821 57.137 128.546 127.62 128.546h768.76c70.371 0 127.62-57.552 127.62-128.546v-510.908c0-70.821-57.137-128.546-127.62-128.546h-352.38v-192h255.382c18.048 0 32.618-14.327 32.618-32 0-17.156-14.603-32-32.618-32h-574.765c-18.048 0-32.618 14.327-32.618 32 0 17.156 14.603 32 32.618 32h255.382v192zM128.438 896c-35.588 0-64.438-28.994-64.438-63.81v-384.38c0-35.241 28.797-63.81 64.438-63.81h767.124c35.588 0 64.438 28.994 64.438 63.81v384.38c0 35.241-28.797 63.81-64.438 63.81h-767.124z" />
<glyph unicode="&#xe633;" glyph-name="phone" data-tags="phone" d="M383.878 896h256.243c71.129 0 127.878-57.475 127.878-128.375v-639.25c0-70.963-57.253-128.375-127.878-128.375h-256.243c-71.129 0-127.878 57.475-127.878 128.375v639.25c0 70.963 57.253 128.375 127.878 128.375zM383.41 768c-35.020 0-63.41-28.564-63.41-63.843v-448.314c0-35.259 28.862-63.843 63.41-63.843h257.18c35.020 0 63.41 28.564 63.41 63.843v448.314c0 35.259-28.862 63.843-63.41 63.843h-257.18zM463.695 844.797c-8.668 0-15.695-7.422-15.695-16 0-8.837 6.882-16 15.695-16h96.609c8.668 0 15.695 7.422 15.695 16 0 8.837-6.882 16-15.695 16h-96.609zM512 64c17.673 0 32 14.327 32 32s-14.327 32-32 32c-17.673 0-32-14.327-32-32s14.327-32 32-32z" />
<glyph unicode="&#xe634;" glyph-name="tablet" data-tags="tablet" d="M256.546 960h510.908c70.821 0 128.546-57.137 128.546-127.62v-768.76c0-70.371-57.552-127.62-128.546-127.62h-510.908c-70.821 0-128.546 57.137-128.546 127.62v768.76c0 70.371 57.552 127.62 128.546 127.62zM255.705 832c-35.184 0-63.705-28.47-63.705-63.717v-576.566c0-35.19 29.163-63.717 63.705-63.717h512.589c35.184 0 63.705 28.47 63.705 63.717v576.566c0 35.19-29.163 63.717-63.705 63.717h-512.589zM463.695 912c-8.668 0-15.695-7.422-15.695-16 0-8.837 6.882-16 15.695-16h96.609c8.668 0 15.695 7.422 15.695 16 0 8.837-6.882 16-15.695 16h-96.609zM512 0c17.673 0 32 14.327 32 32s-14.327 32-32 32c-17.673 0-32-14.327-32-32s14.327-32 32-32z" />
<glyph unicode="&#xe900;" glyph-name="font-weight-light" data-tags="font-weight-light" horiz-adv-x="3072" d="M871.641 229.789c0 14.819-11.855 26.674-26.674 26.674h-207.467v414.194c0 16.301-13.337 29.638-29.638 29.638-18.524 0-31.861-13.337-31.861-29.638v-424.567c0-24.452 20.006-44.457 44.457-44.457h224.509c14.819 0 26.674 11.855 26.674 28.156v0zM1015.386 227.566v443.091c0 16.301-13.337 29.638-29.638 29.638-18.524 0-31.861-13.337-31.861-29.638v-443.091c0-17.042 13.337-30.379 30.379-30.379 17.783 0 31.12 13.337 31.12 30.379v0zM1559.247 313.517v97.806c0 24.452-20.006 44.457-44.457 44.457h-164.492c-14.819 0-26.674-11.855-26.674-26.674 0-16.301 11.855-28.156 26.674-28.156h147.45v-100.77c-24.452-24.452-73.355-53.349-132.631-53.349-108.179 0-190.425 84.469-190.425 201.54 0 117.812 82.246 200.799 190.425 200.799 48.903 0 98.547-20.006 129.667-53.349 5.928-5.928 12.596-8.891 20.006-8.891 16.301 0 28.156 12.596 28.156 28.897 0 7.41-2.223 15.56-8.151 20.747-39.271 39.271-95.583 67.427-169.679 67.427-140.781 0-254.148-102.252-254.148-255.63s113.366-256.37 254.148-256.37c87.433 0 194.13 45.198 194.13 121.517v0zM2071.247 227.566v443.091c0 16.301-13.337 29.638-29.638 29.638-18.524 0-31.861-13.337-31.861-29.638v-187.462h-288.973v187.462c0 16.301-13.337 29.638-29.638 29.638-18.524 0-31.861-13.337-31.861-29.638v-443.091c0-17.042 13.337-30.379 30.379-30.379 17.783 0 31.12 13.337 31.12 30.379v200.799h288.973v-200.799c0-17.042 13.337-30.379 30.379-30.379 17.783 0 31.12 13.337 31.12 30.379v0zM2532.122 667.693c0 16.301-11.855 28.156-26.674 28.156h-330.466c-14.819 0-26.674-11.855-26.674-26.674 0-16.301 11.855-28.156 26.674-28.156h134.113v-413.453c0-17.042 13.337-30.379 30.379-30.379 17.783 0 31.12 13.337 31.12 30.379v413.453h134.854c14.819 0 26.674 11.855 26.674 26.674v0z" />
<glyph unicode="&#xe901;" glyph-name="font-weight-normal" data-tags="font-weight-normal" horiz-adv-x="3072" d="M482.504 238.748v425.925c0 19.293-16.325 35.617-35.617 35.617-21.519 0-37.843-16.325-37.843-35.617v-335.397l-258.226 350.98c-8.904 12.614-24.487 20.035-39.328 20.035-27.455 0-47.49-21.519-47.49-45.264v-422.214c0-20.035 16.325-36.359 36.359-36.359 20.777 0 37.101 16.325 37.101 36.359v343.559l264.162-361.368c8.162-11.872 22.261-18.551 36.359-18.551 25.971 0 44.522 20.777 44.522 42.296v0zM1070.933 448c0 146.922-102.4 256-249.322 256-147.664 0-249.322-109.078-249.322-256s101.658-256 249.322-256c146.922 0 249.322 109.078 249.322 256v0zM995.246 448c0-109.078-68.267-190.701-173.635-190.701-106.11 0-172.893 81.623-172.893 190.701 0 109.82 66.783 190.701 172.893 190.701 105.368 0 173.635-80.881 173.635-190.701v0zM1527.281 543.722c0 92.012-64.557 152.116-158.052 152.116h-159.536c-26.713 0-48.232-21.519-48.232-48.232v-414.794c0-20.035 16.325-36.359 36.359-36.359 20.777 0 37.101 16.325 37.101 36.359v158.794h92.754l111.304-178.087c6.678-11.13 17.809-17.067 29.681-17.067 21.519 0 36.359 17.809 36.359 35.617 0 5.936-1.484 11.872-5.194 18.551l-95.722 148.406c63.814 8.162 123.177 56.394 123.177 144.696v0zM1359.583 630.539c54.168 0 92.012-34.875 92.012-86.817s-37.843-87.559-92.012-87.559h-124.661v174.377h124.661zM2117.936 232.812v413.31c0 32.649-30.423 54.168-63.814 52.684-23.745 0-46.006-14.099-54.91-36.359l-131.339-319.072-130.597 319.072c-10.388 25.971-37.101 37.843-64.557 36.359-29.681 0-53.426-24.487-53.426-52.684v-413.31c0-20.035 16.325-36.359 36.359-36.359 20.777 0 37.101 16.325 37.101 36.359v359.142l156.568-383.629c2.968-6.678 10.388-11.872 17.809-11.872 9.646 0 16.325 5.194 19.293 11.872l157.31 383.629v-359.142c0-20.035 16.325-36.359 37.101-36.359s37.101 16.325 37.101 36.359v0zM2645.519 235.78c0 4.452-0.742 8.904-2.968 14.099l-163.988 411.084c-9.646 24.487-34.133 40.070-60.104 39.328-25.971 0-49.716-15.583-58.62-39.328l-163.988-411.084c-1.484-5.194-2.226-9.646-2.226-14.099 0-20.035 16.325-39.328 39.328-39.328 15.583 0 29.681 8.904 35.617 23.745l32.649 83.849h236.707l32.649-83.849c5.936-14.841 20.035-23.745 35.617-23.745 23.745 0 39.328 20.777 39.328 39.328v0zM2517.148 368.603h-195.154l97.206 252.29 97.948-252.29zM3023.954 234.296c0 17.067-14.099 31.907-31.907 31.907h-196.638v398.47c0 19.293-16.325 35.617-35.617 35.617-21.519 0-37.843-16.325-37.843-35.617v-415.536c0-26.713 21.519-48.232 48.232-48.232h221.867c17.809 0 31.907 14.099 31.907 33.391v0z" />
<glyph unicode="&#xe902;" glyph-name="font-weight-bold" data-tags="font-weight-bold" horiz-adv-x="3072" d="M988.568 334.47c0 62.33-42.296 113.53-94.98 121.693 46.748 9.646 85.333 51.2 85.333 113.53 0 66.041-48.232 126.145-142.47 126.145h-201.090c-32.649 0-59.362-26.713-59.362-59.362v-376.209c0-32.649 26.713-59.362 59.362-59.362h209.252c94.238 0 143.954 59.362 143.954 133.565v0zM871.328 551.142c0-31.165-22.261-53.426-57.878-53.426h-132.081v107.594h132.081c35.617 0 57.878-23.003 57.878-54.168v0zM880.974 349.31c0-35.617-23.745-57.136-63.814-57.136h-135.791v115.014h135.791c41.554 0 63.814-26.713 63.814-57.878v0zM1561.414 448c0 149.148-109.078 256-258.968 256-149.148 0-258.226-106.852-258.226-256s109.078-256 258.226-256c149.89 0 258.968 106.852 258.968 256v0zM1453.078 448c0-92.012-59.362-162.504-150.632-162.504s-149.89 70.493-149.89 162.504c0 92.754 58.62 162.504 149.89 162.504s150.632-69.751 150.632-162.504v0zM1954.69 248.394c0 24.487-20.777 45.264-45.264 45.264h-168.441v354.69c0 28.197-23.745 51.942-51.942 51.942-29.681 0-53.426-23.745-53.426-51.942v-388.081c0-32.649 26.713-59.362 59.362-59.362h214.446c24.487 0 45.264 20.777 45.264 47.49v0zM2481.53 448c0 149.148-107.594 247.838-262.678 247.838h-135.791c-32.649 0-59.362-26.713-59.362-59.362v-376.209c0-32.649 26.713-59.362 59.362-59.362h135.791c155.084 0 262.678 97.948 262.678 247.096v0zM2373.936 448c0-83.849-57.136-154.342-155.084-154.342h-89.786v309.426h89.786c101.658 0 155.084-67.525 155.084-155.084v0z" />
<glyph unicode="&#xe903;" glyph-name="heading-1" data-tags="heading-1" d="M552.96 241.92v413.184c0 29.184-24.576 53.76-53.76 53.76-31.488 0-56.064-24.576-56.064-53.76v-152.064h-241.92v152.064c0 29.184-24.576 53.76-53.76 53.76-30.72 0-55.296-24.576-55.296-53.76v-413.952c0-29.184 24.576-53.76 53.76-53.76 30.72 0 55.296 24.576 55.296 53.76v165.888h241.92v-165.12c0-29.952 24.576-54.528 54.528-54.528 30.72 0 55.296 24.576 55.296 54.528v0zM867.84 241.152v404.736c0 34.56-29.184 62.208-63.744 62.208-17.664 0-34.56-6.912-46.080-18.432l-118.272-119.808c-9.216-9.216-13.824-20.736-13.824-32.256 0-25.344 21.504-45.312 45.312-45.312 10.752 0 21.504 3.84 29.952 12.288l57.6 59.136v-322.56c0-29.184 24.576-53.76 53.76-53.76 30.72 0 55.296 24.576 55.296 53.76v0z" />
<glyph unicode="&#xe904;" glyph-name="heading-2" data-tags="heading-2" d="M480.384 241.92v413.184c0 29.184-24.576 53.76-53.76 53.76-31.488 0-56.064-24.576-56.064-53.76v-152.064h-241.92v152.064c0 29.184-24.576 53.76-53.76 53.76-30.72 0-55.296-24.576-55.296-53.76v-413.952c0-29.184 24.576-53.76 53.76-53.76 30.72 0 55.296 24.576 55.296 53.76v165.888h241.92v-165.12c0-29.952 24.576-54.528 54.528-54.528 30.72 0 55.296 24.576 55.296 54.528v0zM956.544 241.152c0 25.344-21.504 46.848-46.848 46.848h-166.656c132.864 96.768 205.056 172.8 205.056 260.352 0 102.144-86.784 163.584-195.84 163.584-64.512 0-150.528-27.648-175.104-66.816-4.608-6.912-6.912-14.592-6.912-22.272 0-27.648 22.272-49.152 47.616-49.152 11.52 0 21.504 3.072 31.488 9.984 29.184 19.968 64.512 31.488 105.216 31.488 42.24 0 82.944-22.272 82.944-66.816 0-59.904-61.44-115.968-252.672-257.28-14.592-10.752-23.040-28.416-23.040-46.080 0-30.72 24.576-52.992 51.456-52.992h296.448c25.344 0 46.848 21.504 46.848 49.152v0z" />
<glyph unicode="&#xe905;" glyph-name="heading-3" data-tags="heading-3" d="M485.376 241.92v413.184c0 29.184-24.576 53.76-53.76 53.76-31.488 0-56.064-24.576-56.064-53.76v-152.064h-241.92v152.064c0 29.184-24.576 53.76-53.76 53.76-30.72 0-55.296-24.576-55.296-53.76v-413.952c0-29.184 24.576-53.76 53.76-53.76 30.72 0 55.296 24.576 55.296 53.76v165.888h241.92v-165.12c0-29.952 24.576-54.528 54.528-54.528 30.72 0 55.296 24.576 55.296 54.528v0zM954.624 333.312c0 76.8-67.584 117.504-119.808 122.88 56.832 9.984 112.128 52.224 112.128 116.736 0 85.248-73.728 139.008-193.536 139.008-70.656 0-125.952-20.736-168.192-54.528-10.752-8.448-16.128-20.736-16.128-33.024 0-26.88 23.808-46.080 47.616-46.080 9.216 0 18.432 2.304 26.112 7.68 29.952 19.2 63.744 29.184 99.072 29.184 53.76 0 95.232-19.968 95.232-60.672 0-42.24-46.080-57.6-112.896-54.528-29.952 0-49.92-20.736-49.92-47.616 0-34.56 28.416-53.76 68.352-48.384 71.424 0 102.912-18.432 102.912-59.136 0-38.4-34.56-65.28-96.768-65.28-35.328 0-76.032 12.288-109.824 32.256-8.448 5.376-17.664 7.68-26.88 7.68-25.344 0-49.92-20.736-49.92-48.384 0-7.68 2.304-14.592 6.144-20.736 23.808-39.936 110.592-67.584 184.32-67.584 122.88 0 201.984 62.208 201.984 150.528v0z" />
<glyph unicode="&#xe906;" glyph-name="heading-4" data-tags="heading-4" d="M481.536 241.92v413.184c0 29.184-24.576 53.76-53.76 53.76-31.488 0-56.064-24.576-56.064-53.76v-152.064h-241.92v152.064c0 29.184-24.576 53.76-53.76 53.76-30.72 0-55.296-24.576-55.296-53.76v-413.952c0-29.184 24.576-53.76 53.76-53.76 30.72 0 55.296 24.576 55.296 53.76v165.888h241.92v-165.12c0-29.952 24.576-54.528 54.528-54.528 30.72 0 55.296 24.576 55.296 54.528v0zM975.36 345.6c0 26.88-21.504 48.384-46.848 48.384h-23.808v253.44c0 47.616-46.080 69.12-92.928 61.44-33.024 0-66.048-17.664-83.712-45.312l-171.264-270.336c-6.912-10.752-9.984-23.040-9.984-35.328 0-34.56 25.344-59.904 56.064-59.904h192.768v-56.832c0-29.184 24.576-53.76 53.76-53.76 30.72 0 55.296 24.576 55.296 53.76v56.832h23.808c25.344 0 46.848 21.504 46.848 47.616v0zM795.648 393.984h-138.24l138.24 213.504v-213.504z" />
<glyph unicode="&#xe907;" glyph-name="heading-5" data-tags="heading-5" d="M477.312 241.92v413.184c0 29.184-24.576 53.76-53.76 53.76-31.488 0-56.064-24.576-56.064-53.76v-152.064h-241.92v152.064c0 29.184-24.576 53.76-53.76 53.76-30.72 0-55.296-24.576-55.296-53.76v-413.952c0-29.184 24.576-53.76 53.76-53.76 30.72 0 55.296 24.576 55.296 53.76v165.888h241.92v-165.12c0-29.952 24.576-54.528 54.528-54.528 30.72 0 55.296 24.576 55.296 54.528v0zM967.296 360.192c0 103.68-77.568 165.888-164.352 165.888-46.848 0-88.32-18.432-112.896-43.008v125.184h200.448c25.344 0 46.848 21.504 46.848 47.616 0 26.88-21.504 48.384-46.848 48.384h-248.064c-33.792 0-61.44-27.648-61.44-61.44v-196.608c0-29.952 21.504-52.224 55.296-52.224 15.36 0 29.952 4.608 42.24 13.056 27.648 18.432 54.528 24.576 86.016 24.576 58.368 0 92.16-30.72 92.16-76.032 0-41.472-34.56-76.032-95.232-76.032-36.864 0-72.192 9.984-102.144 28.416-9.216 5.376-19.2 8.448-28.416 8.448-26.88 0-52.224-20.736-52.224-49.152 0-7.68 2.304-15.36 6.144-22.272 23.808-39.936 110.592-62.208 177.408-62.208 123.648 0 205.056 68.352 205.056 177.408v0z" />
<glyph unicode="&#xe908;" glyph-name="heading-6" data-tags="heading-6" d="M460.8 233.984v0c0-29.952-24.576-54.528-55.296-54.528-29.952 0-54.528 24.576-54.528 54.528v165.12h-241.92v-165.888c0-29.184-24.576-53.76-55.296-53.76-29.184 0-53.76 24.576-53.76 53.76v413.952c0 29.184 24.576 53.76 55.296 53.76 29.184 0 53.76-24.576 53.76-53.76v-152.064h241.92v152.064c0 29.184 24.576 53.76 56.064 53.76 29.184 0 53.76-24.576 53.76-53.76v-413.184zM953.856 350.72c0 109.056-82.176 166.656-174.336 166.656-56.064 0-107.52-31.488-131.328-66.048-0.768 3.84-0.768 6.912-0.768 10.752 0 81.408 52.992 145.152 128.256 145.152 26.112 0 47.616-4.608 66.816-14.592 6.912-3.84 14.592-5.376 22.272-5.376 23.808 0 49.92 18.432 49.92 47.616 0 7.68-2.304 14.592-5.376 20.736-19.2 33.792-83.712 48.384-133.632 48.384-151.296 0-238.848-109.824-238.848-264.96 0-144.384 65.28-264.192 221.184-264.192 116.736 0 195.84 76.032 195.84 175.872v0zM843.264 346.88c0-36.096-32.256-75.264-91.392-75.264-71.424 0-99.072 54.528-103.68 103.68 24.576 30.72 61.44 48.384 99.84 48.384 49.152 0 95.232-23.040 95.232-76.8v0z" />
<glyph unicode="&#xe909;" glyph-name="font-strike-through" data-tags="font-strike-through" d="M711.924 384c2.221-10.066 3.408-21.025 3.408-32.975 0-90.659-64.65-159.025-198.409-159.025-72.081 0-161.254 23.779-188.749 64.65-5.202 7.431-8.174 16.348-8.174 25.266 0 28.238 24.522 49.045 49.788 49.045 9.66 0 20.064-2.229 28.238-8.174 33.44-23.036 75.797-38.642 124.099-38.642 57.962 0 86.2 26.752 86.2 54.99 0 22.429-18.67 35.183-46.458 44.865h-401.845c-17.685 0-32.022 14.844-32.022 32 0 17.673 14.656 32 32.022 32h214.478c-30.564 22.163-51.528 54.594-51.528 105.149 0 82.485 71.338 150.851 188.006 150.851 56.476 0 142.676-18.578 170.171-54.99 5.945-7.431 8.917-16.348 8.917-25.266 0-28.238-27.495-47.559-52.761-47.559-8.917 0-17.835 2.229-26.752 7.431-34.183 19.321-72.824 28.238-109.237 28.238-45.329 0-70.595-20.064-70.595-49.788 0-59.94 164.802-43.717 243.594-114.067h189.661c17.685 0 32.022-14.844 32.022-32 0-17.673-14.656-32-32.022-32h-152.054z" />
<glyph unicode="&#xe90a;" glyph-name="font-sizing" data-tags="font-sizing" d="M866.316 434.291v-210.333c0-17.445-14.844-31.587-32-31.587-17.673 0-32 14.755-32 31.587v210.333l-36.091-36.091c-12.382-12.382-32.915-11.923-45.046 0.209-12.497 12.497-12.864 32.391-0.209 45.046l90.927 90.927c6.155 6.155 14.325 9.137 22.476 9.089 7.987 0.276 16.069-2.797 22.362-9.089l90.927-90.927c12.382-12.382 11.923-32.915-0.209-45.046-12.497-12.497-32.391-12.864-45.046-0.209l-36.091 36.091zM571.93 269.626l-157.914 377.581c-15.466 36.929-56.979 59.539-98.493 56.524-38.258 0-74.887-22.61-88.725-56.524l-158.728-377.581c-3.256-6.783-4.070-13.566-4.070-20.349 0-28.639 24.42-57.278 61.049-57.278 25.234 0 48.025 13.566 56.979 35.422l24.946 56.738h232.801l18.195-56.738c8.954-21.856 31.746-35.422 56.165-35.422 37.444 0 61.863 29.393 61.863 57.278 0 6.783-1.628 13.566-4.070 20.349zM405.333 386.56h-170.667l85.333 204.998 85.333-204.998zM704 672c0 17.673 13.764 32 31.391 32h193.219c17.337 0 31.391-14.844 31.391-32 0-17.673-13.764-32-31.391-32h-193.219c-17.337 0-31.391 14.844-31.391 32z" />
<glyph unicode="&#xe90b;" glyph-name="font-bold" data-tags="font-bold" d="M732.838 286.338c0 72.040-48.884 131.216-109.776 140.65 54.030 11.149 98.626 59.176 98.626 131.216 0 76.328-55.745 145.796-164.663 145.796h-232.415c-37.735 0-68.61-30.874-68.61-68.61v-434.814c0-37.735 30.874-68.61 68.61-68.61h241.849c108.918 0 166.379 68.61 166.379 154.372v0zM597.333 536.764c0-36.020-25.729-61.749-66.894-61.749h-152.657v124.355h152.657c41.166 0 66.894-26.586 66.894-62.606v0zM608.482 303.491c0-41.166-27.444-66.037-73.755-66.037h-156.945v132.931h156.945c48.027 0 73.755-30.874 73.755-66.894v0z" />
<glyph unicode="&#xe90c;" glyph-name="font-italic" data-tags="font-italic" d="M658.219 197.219l-8.938-36.563c-26.813-10.563-48.208-18.62-64.187-24.172s-34.531-8.328-55.656-8.328c-32.5 0-57.755 7.922-75.766 23.766s-27.016 35.953-27.016 60.328c0 9.479 0.677 19.161 2.031 29.047s3.521 21.057 6.5 33.516l33.312 118.625c2.979 11.375 5.484 22.141 7.516 32.297s3.047 19.432 3.047 27.828c0 15.167-3.115 25.729-9.344 31.688s-18.146 8.938-35.75 8.938c-8.667 0-17.536-1.354-26.609-4.063s-16.859-5.281-23.359-7.719l8.938 36.562c21.938 8.938 42.927 16.589 62.969 22.953s39 9.547 56.875 9.547c32.229 0 57.078-7.786 74.547-23.359s26.203-35.818 26.203-60.734c0-5.146-0.609-14.219-1.828-27.219s-3.453-24.917-6.703-35.75l-33.312-118.219c-2.708-9.479-5.146-20.312-7.312-32.5s-3.25-21.396-3.25-27.625c0-15.708 3.521-26.406 10.563-32.094s19.229-8.531 36.562-8.531c8.125 0 17.333 1.422 27.625 4.266s17.74 5.349 22.344 7.516v0zM666.75 693.25c0-20.583-7.786-38.12-23.359-52.609s-34.328-21.734-56.266-21.734c-21.938 0-40.76 7.245-56.469 21.734s-23.563 32.026-23.563 52.609c0 20.583 7.854 38.187 23.563 52.812s34.531 21.938 56.469 21.938c21.938 0 40.693-7.312 56.266-21.938s23.359-32.229 23.359-52.812v0z" />
<glyph unicode="&#xe90d;" glyph-name="font-text-transform" data-tags="font-text-transform" d="M832 448h64.59c34.547 0 63.41 28.654 63.41 64 0 35.593-28.39 64-63.41 64h-257.18c-34.547 0-63.41-28.654-63.41-64 0-35.593 28.39-64 63.41-64h64.59v-256.59c0-34.547 28.654-63.41 64-63.41 35.593 0 64 28.39 64 63.41v256.59zM384 576h128.19c34.816 0 63.81 28.654 63.81 64 0 35.593-28.569 64-63.81 64h-384.38c-34.816 0-63.81-28.654-63.81-64 0-35.593 28.569-64 63.81-64h128.19v-384.19c0-34.816 28.654-63.81 64-63.81 35.593 0 64 28.569 64 63.81v384.19z" />
<glyph unicode="&#xe90e;" glyph-name="font-underline" data-tags="font-underline" d="M704 658.711c0 24.877-20.412 45.289-45.289 45.289-26.791 0-47.203-20.412-47.203-45.289v-211.136c0-59.322-33.807-100.146-99.508-100.146s-100.146 40.824-100.146 100.146v211.136c0 24.877-20.412 45.289-45.289 45.289-26.153 0-46.565-20.412-46.565-45.289v-214.326c0-104.611 62.512-177.329 192-177.329s192 72.080 192 177.967v213.688zM256 160c0 17.673 14.771 32 32.028 32h447.944c17.689 0 32.028-14.844 32.028-32 0-17.673-14.771-32-32.028-32h-447.944c-17.689 0-32.028 14.844-32.028 32z" />
<glyph unicode="&#xe90f;" glyph-name="border-bottom" data-tags="border-bottom" d="M64.056 64c-35.377 0-64.056-28.407-64.056-64 0-35.346 28.456-64 64.056-64h895.888c35.377 0 64.056 28.407 64.056 64 0 35.346-28.456 64-64.056 64h-895.888zM32.3 960c-17.839 0-32.3-14.844-32.3-32 0-17.673 13.698-32 32.3-32h63.4c17.839 0 32.3 14.844 32.3 32 0 17.673-13.698 32-32.3 32h-63.4zM224.3 960c-17.839 0-32.3-14.844-32.3-32 0-17.673 13.698-32 32.3-32h63.4c17.839 0 32.3 14.844 32.3 32 0 17.673-13.698 32-32.3 32h-63.4zM416.3 960c-17.839 0-32.3-14.844-32.3-32 0-17.673 13.698-32 32.3-32h63.4c17.839 0 32.3 14.844 32.3 32 0 17.673-13.698 32-32.3 32h-63.4zM608.3 960c-17.839 0-32.3-14.844-32.3-32 0-17.673 13.698-32 32.3-32h63.4c17.839 0 32.3 14.844 32.3 32 0 17.673-13.698 32-32.3 32h-63.4zM800.3 960c-17.839 0-32.3-14.844-32.3-32 0-17.673 13.698-32 32.3-32h63.4c17.839 0 32.3 14.844 32.3 32 0 17.673-13.698 32-32.3 32h-63.4zM32 832c-17.673 0-32-13.698-32-32.3v-63.4c0-17.839 14.844-32.3 32-32.3 17.673 0 32 13.698 32 32.3v63.4c0 17.839-14.844 32.3-32 32.3zM32 640c-17.673 0-32-13.698-32-32.3v-63.4c0-17.839 14.844-32.3 32-32.3 17.673 0 32 13.698 32 32.3v63.4c0 17.839-14.844 32.3-32 32.3zM32 448c-17.673 0-32-13.698-32-32.3v-63.4c0-17.839 14.844-32.3 32-32.3 17.673 0 32 13.698 32 32.3v63.4c0 17.839-14.844 32.3-32 32.3zM32 256c-17.673 0-32-13.698-32-32.3v-63.4c0-17.839 14.844-32.3 32-32.3 17.673 0 32 13.698 32 32.3v63.4c0 17.839-14.844 32.3-32 32.3zM992 960c-17.673 0-32-14.844-32-32 0-17.673 14.844-32 32-32 17.673 0 32 14.844 32 32 0 17.673-14.844 32-32 32zM992 832c-17.673 0-32-13.698-32-32.3v-63.4c0-17.839 14.844-32.3 32-32.3 17.673 0 32 13.698 32 32.3v63.4c0 17.839-14.844 32.3-32 32.3zM992 640c-17.673 0-32-13.698-32-32.3v-63.4c0-17.839 14.844-32.3 32-32.3 17.673 0 32 13.698 32 32.3v63.4c0 17.839-14.844 32.3-32 32.3zM992 448c-17.673 0-32-13.698-32-32.3v-63.4c0-17.839 14.844-32.3 32-32.3 17.673 0 32 13.698 32 32.3v63.4c0 17.839-14.844 32.3-32 32.3zM992 256c-17.673 0-32-13.698-32-32.3v-63.4c0-17.839 14.844-32.3 32-32.3 17.673 0 32 13.698 32 32.3v63.4c0 17.839-14.844 32.3-32 32.3z" />
<glyph unicode="&#xe910;" glyph-name="border-left" data-tags="border-left" d="M224.3 0c-17.839 0-32.3-14.844-32.3-32 0-17.673 13.698-32 32.3-32h63.4c17.839 0 32.3 14.844 32.3 32 0 17.673-13.698 32-32.3 32h-63.4zM416.3 0c-17.839 0-32.3-14.844-32.3-32 0-17.673 13.698-32 32.3-32h63.4c17.839 0 32.3 14.844 32.3 32 0 17.673-13.698 32-32.3 32h-63.4zM608.3 0c-17.839 0-32.3-14.844-32.3-32 0-17.673 13.698-32 32.3-32h63.4c17.839 0 32.3 14.844 32.3 32 0 17.673-13.698 32-32.3 32h-63.4zM800.3 0c-17.839 0-32.3-14.844-32.3-32 0-17.673 13.698-32 32.3-32h63.4c17.839 0 32.3 14.844 32.3 32 0 17.673-13.698 32-32.3 32h-63.4zM224.3 960c-17.839 0-32.3-14.844-32.3-32 0-17.673 13.698-32 32.3-32h63.4c17.839 0 32.3 14.844 32.3 32 0 17.673-13.698 32-32.3 32h-63.4zM416.3 960c-17.839 0-32.3-14.844-32.3-32 0-17.673 13.698-32 32.3-32h63.4c17.839 0 32.3 14.844 32.3 32 0 17.673-13.698 32-32.3 32h-63.4zM608.3 960c-17.839 0-32.3-14.844-32.3-32 0-17.673 13.698-32 32.3-32h63.4c17.839 0 32.3 14.844 32.3 32 0 17.673-13.698 32-32.3 32h-63.4zM800.3 960c-17.839 0-32.3-14.844-32.3-32 0-17.673 13.698-32 32.3-32h63.4c17.839 0 32.3 14.844 32.3 32 0 17.673-13.698 32-32.3 32h-63.4zM992 960c-17.673 0-32-14.844-32-32 0-17.673 14.844-32 32-32 17.673 0 32 14.844 32 32 0 17.673-14.844 32-32 32zM64 960c-35.346 0-64-28.456-64-64.056v-895.888c0-35.377 28.407-64.056 64-64.056 35.346 0 64 28.456 64 64.056v895.888c0 35.377-28.407 64.056-64 64.056zM992 832c-17.673 0-32-13.698-32-32.3v-63.4c0-17.839 14.844-32.3 32-32.3 17.673 0 32 13.698 32 32.3v63.4c0 17.839-14.844 32.3-32 32.3zM992 640c-17.673 0-32-13.698-32-32.3v-63.4c0-17.839 14.844-32.3 32-32.3 17.673 0 32 13.698 32 32.3v63.4c0 17.839-14.844 32.3-32 32.3zM992 448c-17.673 0-32-13.698-32-32.3v-63.4c0-17.839 14.844-32.3 32-32.3 17.673 0 32 13.698 32 32.3v63.4c0 17.839-14.844 32.3-32 32.3zM992 256c-17.673 0-32-13.698-32-32.3v-63.4c0-17.839 14.844-32.3 32-32.3 17.673 0 32 13.698 32 32.3v63.4c0 17.839-14.844 32.3-32 32.3zM992 64c-17.673 0-32-13.698-32-32.3v-63.4c0-17.839 14.844-32.3 32-32.3 17.673 0 32 13.698 32 32.3v63.4c0 17.839-14.844 32.3-32 32.3z" />
<glyph unicode="&#xe911;" glyph-name="border-right" data-tags="border-right" d="M32 0c-17.673 0-32-14.844-32-32 0-17.673 14.844-32 32-32 17.673 0 32 14.844 32 32 0 17.673-14.844 32-32 32zM160.3 0c-17.839 0-32.3-14.844-32.3-32 0-17.673 13.698-32 32.3-32h63.4c17.839 0 32.3 14.844 32.3 32 0 17.673-13.698 32-32.3 32h-63.4zM352.3 0c-17.839 0-32.3-14.844-32.3-32 0-17.673 13.698-32 32.3-32h63.4c17.839 0 32.3 14.844 32.3 32 0 17.673-13.698 32-32.3 32h-63.4zM544.3 0c-17.839 0-32.3-14.844-32.3-32 0-17.673 13.698-32 32.3-32h63.4c17.839 0 32.3 14.844 32.3 32 0 17.673-13.698 32-32.3 32h-63.4zM736.3 0c-17.839 0-32.3-14.844-32.3-32 0-17.673 13.698-32 32.3-32h63.4c17.839 0 32.3 14.844 32.3 32 0 17.673-13.698 32-32.3 32h-63.4zM160.3 960c-17.839 0-32.3-14.844-32.3-32 0-17.673 13.698-32 32.3-32h63.4c17.839 0 32.3 14.844 32.3 32 0 17.673-13.698 32-32.3 32h-63.4zM352.3 960c-17.839 0-32.3-14.844-32.3-32 0-17.673 13.698-32 32.3-32h63.4c17.839 0 32.3 14.844 32.3 32 0 17.673-13.698 32-32.3 32h-63.4zM544.3 960c-17.839 0-32.3-14.844-32.3-32 0-17.673 13.698-32 32.3-32h63.4c17.839 0 32.3 14.844 32.3 32 0 17.673-13.698 32-32.3 32h-63.4zM736.3 960c-17.839 0-32.3-14.844-32.3-32 0-17.673 13.698-32 32.3-32h63.4c17.839 0 32.3 14.844 32.3 32 0 17.673-13.698 32-32.3 32h-63.4zM960 960c-35.346 0-64-28.456-64-64.056v-895.888c0-35.377 28.407-64.056 64-64.056 35.346 0 64 28.456 64 64.056v895.888c0 35.377-28.407 64.056-64 64.056zM32 960c-17.673 0-32-13.698-32-32.3v-63.4c0-17.839 14.844-32.3 32-32.3 17.673 0 32 13.698 32 32.3v63.4c0 17.839-14.844 32.3-32 32.3zM32 768c-17.673 0-32-13.698-32-32.3v-63.4c0-17.839 14.844-32.3 32-32.3 17.673 0 32 13.698 32 32.3v63.4c0 17.839-14.844 32.3-32 32.3zM32 576c-17.673 0-32-13.698-32-32.3v-63.4c0-17.839 14.844-32.3 32-32.3 17.673 0 32 13.698 32 32.3v63.4c0 17.839-14.844 32.3-32 32.3zM32 384c-17.673 0-32-13.698-32-32.3v-63.4c0-17.839 14.844-32.3 32-32.3 17.673 0 32 13.698 32 32.3v63.4c0 17.839-14.844 32.3-32 32.3zM32 192c-17.673 0-32-13.698-32-32.3v-63.4c0-17.839 14.844-32.3 32-32.3 17.673 0 32 13.698 32 32.3v63.4c0 17.839-14.844 32.3-32 32.3z" />
<glyph unicode="&#xe912;" glyph-name="border-top" data-tags="border-top" d="M64.056 960c-35.377 0-64.056-28.407-64.056-64 0-35.346 28.456-64 64.056-64h895.888c35.377 0 64.056 28.407 64.056 64 0 35.346-28.456 64-64.056 64h-895.888zM992 768c-17.673 0-32-13.698-32-32.3v-63.4c0-17.839 14.844-32.3 32-32.3 17.673 0 32 13.698 32 32.3v63.4c0 17.839-14.844 32.3-32 32.3zM32 768c-17.673 0-32-13.698-32-32.3v-63.4c0-17.839 14.844-32.3 32-32.3 17.673 0 32 13.698 32 32.3v63.4c0 17.839-14.844 32.3-32 32.3zM992 576c-17.673 0-32-13.698-32-32.3v-63.4c0-17.839 14.844-32.3 32-32.3 17.673 0 32 13.698 32 32.3v63.4c0 17.839-14.844 32.3-32 32.3zM32 576c-17.673 0-32-13.698-32-32.3v-63.4c0-17.839 14.844-32.3 32-32.3 17.673 0 32 13.698 32 32.3v63.4c0 17.839-14.844 32.3-32 32.3zM992 384c-17.673 0-32-13.698-32-32.3v-63.4c0-17.839 14.844-32.3 32-32.3 17.673 0 32 13.698 32 32.3v63.4c0 17.839-14.844 32.3-32 32.3zM32 384c-17.673 0-32-13.698-32-32.3v-63.4c0-17.839 14.844-32.3 32-32.3 17.673 0 32 13.698 32 32.3v63.4c0 17.839-14.844 32.3-32 32.3zM992 192c-17.673 0-32-13.698-32-32.3v-63.4c0-17.839 14.844-32.3 32-32.3 17.673 0 32 13.698 32 32.3v63.4c0 17.839-14.844 32.3-32 32.3zM32 192c-17.673 0-32-13.698-32-32.3v-63.4c0-17.839 14.844-32.3 32-32.3 17.673 0 32 13.698 32 32.3v63.4c0 17.839-14.844 32.3-32 32.3zM32 0c-17.673 0-32-14.844-32-32 0-17.673 14.844-32 32-32 17.673 0 32 14.844 32 32 0 17.673-14.844 32-32 32zM160.3 0c-17.839 0-32.3-14.844-32.3-32 0-17.673 13.698-32 32.3-32h63.4c17.839 0 32.3 14.844 32.3 32 0 17.673-13.698 32-32.3 32h-63.4zM352.3 0c-17.839 0-32.3-14.844-32.3-32 0-17.673 13.698-32 32.3-32h63.4c17.839 0 32.3 14.844 32.3 32 0 17.673-13.698 32-32.3 32h-63.4zM544.3 0c-17.839 0-32.3-14.844-32.3-32 0-17.673 13.698-32 32.3-32h63.4c17.839 0 32.3 14.844 32.3 32 0 17.673-13.698 32-32.3 32h-63.4zM736.3 0c-17.839 0-32.3-14.844-32.3-32 0-17.673 13.698-32 32.3-32h63.4c17.839 0 32.3 14.844 32.3 32 0 17.673-13.698 32-32.3 32h-63.4zM928.3 0c-17.839 0-32.3-14.844-32.3-32 0-17.673 13.698-32 32.3-32h63.4c17.839 0 32.3 14.844 32.3 32 0 17.673-13.698 32-32.3 32h-63.4z" />
<glyph unicode="&#xe913;" glyph-name="background-repeat" data-tags="background-repeat" d="M0 895.4c0 35.677 28.375 64.6 64.6 64.6h126.801c35.677 0 64.6-28.375 64.6-64.6v-126.801c0-35.677-28.375-64.6-64.6-64.6h-126.801c-35.677 0-64.6 28.375-64.6 64.6v126.801zM384 895.4c0 35.677 28.375 64.6 64.6 64.6h126.801c35.677 0 64.6-28.375 64.6-64.6v-126.801c0-35.677-28.375-64.6-64.6-64.6h-126.801c-35.677 0-64.6 28.375-64.6 64.6v126.801zM768 895.4c0 35.677 28.375 64.6 64.6 64.6h126.801c35.677 0 64.6-28.375 64.6-64.6v-126.801c0-35.677-28.375-64.6-64.6-64.6h-126.801c-35.677 0-64.6 28.375-64.6 64.6v126.801zM0 511.4c0 35.677 28.375 64.6 64.6 64.6h126.801c35.677 0 64.6-28.375 64.6-64.6v-126.801c0-35.677-28.375-64.6-64.6-64.6h-126.801c-35.677 0-64.6 28.375-64.6 64.6v126.801zM384 511.4c0 35.677 28.375 64.6 64.6 64.6h126.801c35.677 0 64.6-28.375 64.6-64.6v-126.801c0-35.677-28.375-64.6-64.6-64.6h-126.801c-35.677 0-64.6 28.375-64.6 64.6v126.801zM768 511.4c0 35.677 28.375 64.6 64.6 64.6h126.801c35.677 0 64.6-28.375 64.6-64.6v-126.801c0-35.677-28.375-64.6-64.6-64.6h-126.801c-35.677 0-64.6 28.375-64.6 64.6v126.801zM0 127.4c0 35.677 28.375 64.6 64.6 64.6h126.801c35.677 0 64.6-28.375 64.6-64.6v-126.801c0-35.677-28.375-64.6-64.6-64.6h-126.801c-35.677 0-64.6 28.375-64.6 64.6v126.801zM384 127.4c0 35.677 28.375 64.6 64.6 64.6h126.801c35.677 0 64.6-28.375 64.6-64.6v-126.801c0-35.677-28.375-64.6-64.6-64.6h-126.801c-35.677 0-64.6 28.375-64.6 64.6v126.801zM768 127.4c0 35.677 28.375 64.6 64.6 64.6h126.801c35.677 0 64.6-28.375 64.6-64.6v-126.801c0-35.677-28.375-64.6-64.6-64.6h-126.801c-35.677 0-64.6 28.375-64.6 64.6v126.801z" />
<glyph unicode="&#xe914;" glyph-name="background-repeat-vertical" data-tags="background-repeat-vertical" d="M384 895.4c0 35.677 28.375 64.6 64.6 64.6h126.801c35.677 0 64.6-28.375 64.6-64.6v-126.801c0-35.677-28.375-64.6-64.6-64.6h-126.801c-35.677 0-64.6 28.375-64.6 64.6v126.801zM384 511.4c0 35.677 28.375 64.6 64.6 64.6h126.801c35.677 0 64.6-28.375 64.6-64.6v-126.801c0-35.677-28.375-64.6-64.6-64.6h-126.801c-35.677 0-64.6 28.375-64.6 64.6v126.801zM384 127.4c0 35.677 28.375 64.6 64.6 64.6h126.801c35.677 0 64.6-28.375 64.6-64.6v-126.801c0-35.677-28.375-64.6-64.6-64.6h-126.801c-35.677 0-64.6 28.375-64.6 64.6v126.801z" />
<glyph unicode="&#xe915;" glyph-name="background-repeat-horizontal" data-tags="background-repeat-horizontal" d="M0 511.4c0 35.677 28.375 64.6 64.6 64.6h126.801c35.677 0 64.6-28.375 64.6-64.6v-126.801c0-35.677-28.375-64.6-64.6-64.6h-126.801c-35.677 0-64.6 28.375-64.6 64.6v126.801zM384 511.4c0 35.677 28.375 64.6 64.6 64.6h126.801c35.677 0 64.6-28.375 64.6-64.6v-126.801c0-35.677-28.375-64.6-64.6-64.6h-126.801c-35.677 0-64.6 28.375-64.6 64.6v126.801zM768 511.4c0 35.677 28.375 64.6 64.6 64.6h126.801c35.677 0 64.6-28.375 64.6-64.6v-126.801c0-35.677-28.375-64.6-64.6-64.6h-126.801c-35.677 0-64.6 28.375-64.6 64.6v126.801z" />
<glyph unicode="&#xe916;" glyph-name="background-no-repeat" data-tags="background-no-repeat" d="M448 576h128c35.346 0 64-28.654 64-64v-128c0-35.346-28.654-64-64-64h-128c-35.346 0-64 28.654-64 64v128c0 35.346 28.654 64 64 64z" />
<glyph unicode="&#xe917;" glyph-name="hover-default" data-tags="hover-default" d="M320 192h-64.025c-71.18 0-127.975 57.297-127.975 127.975v384.049c0 71.18 57.297 127.975 127.975 127.975h384.049c71.18 0 127.975-57.297 127.975-127.975v-64.025h0.167c70.498 0 127.833-57.233 127.833-127.833v-320.334c0-70.498-57.233-127.833-127.833-127.833h-320.334c-70.498 0-127.833 57.233-127.833 127.833v0.167zM384 192c0.099-35.364 28.088-64 64.187-64h319.625c35.45 0 64.187 28.024 64.187 64.187v319.625c0 35.388-27.928 64.088-64 64.187v-256.024c0-71.18-57.297-127.975-127.975-127.975h-256.024zM255.81 768c-35.241 0-63.81-28.994-63.81-63.81v-384.38c0-35.241 28.994-63.81 63.81-63.81h384.38c35.241 0 63.81 28.994 63.81 63.81v384.38c0 35.241-28.994 63.81-63.81 63.81h-384.38z" />
<glyph unicode="&#xe918;" glyph-name="hover" data-tags="hover" d="M320 192h-64.025c-71.18 0-127.975 57.297-127.975 127.975v384.049c0 71.18 57.297 127.975 127.975 127.975h384.049c71.18 0 127.975-57.297 127.975-127.975v-64.025h0.167c70.498 0 127.833-57.233 127.833-127.833v-320.334c0-70.498-57.233-127.833-127.833-127.833h-320.334c-70.498 0-127.833 57.233-127.833 127.833v0.167zM384 192c0.099-35.364 28.088-64 64.187-64h319.625c35.45 0 64.187 28.024 64.187 64.187v319.625c0 35.388-27.928 64.088-64 64.187v-256.024c0-71.18-57.297-127.975-127.975-127.975h-256.024z" />
<glyph unicode="&#xe919;" glyph-name="accordions" data-tags="accordions" d="M581.065 372.401c-8.073-0.037-16.155 3.036-22.447 9.328l-90.927 90.927c-12.382 12.382-11.923 32.915 0.209 45.046 12.497 12.497 32.391 12.864 45.046 0.209l68.091-68.091 68.091 68.091c12.382 12.382 32.915 11.923 45.046-0.209 12.497-12.497 12.864-32.391 0.209-45.046l-90.927-90.927c-6.155-6.155-14.325-9.137-22.476-9.089zM64 192v-127.562c0-35.641 28.85-64.438 64.438-64.438h767.124c35.641 0 64.438 28.85 64.438 64.438v767.124c0 35.641-28.85 64.438-64.438 64.438h-767.124c-35.641 0-64.438-28.85-64.438-64.438v-127.562h704.096c35.293 0 63.904-28.994 63.904-63.81v-384.38c0-35.241-28.639-63.81-63.904-63.81h-704.096zM1024 63.62c0-70.483-57.249-127.62-127.62-127.62h-768.76c-70.483 0-127.62 57.249-127.62 127.62v768.76c0 70.483 57.249 127.62 127.62 127.62h768.76c70.483 0 127.62-57.249 127.62-127.62v-768.76zM768 256v384h-704v-384h704z" />
<glyph unicode="&#xe91a;" glyph-name="tabs" data-tags="tabs" d="M960 320v511.562c0 35.641-28.85 64.438-64.438 64.438h-767.124c-35.641 0-64.438-28.85-64.438-64.438v-511.562h128v256.012c0 35.59 28.522 63.988 63.705 63.988h512.589c34.543 0 63.705-28.648 63.705-63.988v-256.012h128zM960 256h-127.4c-36.225 0-64.6 28.648-64.6 63.988v256.012h-512v-256.012c0-35.59-28.922-63.988-64.6-63.988h-127.4v-191.562c0-35.641 28.85-64.438 64.438-64.438h767.124c35.641 0 64.438 28.85 64.438 64.438v191.562zM0 832.38c0 70.483 57.249 127.62 127.62 127.62h768.76c70.483 0 127.62-57.249 127.62-127.62v-768.76c0-70.483-57.249-127.62-127.62-127.62h-768.76c-70.483 0-127.62 57.249-127.62 127.62v768.76zM384 416c0 17.673 13.764 32 31.391 32h193.219c17.337 0 31.391-14.844 31.391-32 0-17.673-13.764-32-31.391-32h-193.219c-17.337 0-31.391 14.844-31.391 32z" />
<glyph unicode="&#xe91b;" glyph-name="header-sidebar" data-tags="header-sidebar" d="M127.62 960h768.76c70.371 0 127.62-57.137 127.62-127.62v-768.76c0-70.371-57.137-127.62-127.62-127.62h-768.76c-70.371 0-127.62 57.137-127.62 127.62v768.76c0 70.371 57.137 127.62 127.62 127.62zM319.717 896c-35.19 0-63.717-28.797-63.717-64.438v-767.124c0-35.588 28.47-64.438 63.717-64.438h576.566c35.19 0 63.717 28.797 63.717 64.438v767.124c0 35.588-28.47 64.438-63.717 64.438h-576.566zM96.3 704c-17.839 0-32.3-14.844-32.3-32 0-17.673 13.698-32 32.3-32h63.4c17.839 0 32.3 14.844 32.3 32 0 17.673-13.698 32-32.3 32h-63.4zM96.3 448c-17.839 0-32.3-14.844-32.3-32 0-17.673 13.698-32 32.3-32h63.4c17.839 0 32.3 14.844 32.3 32 0 17.673-13.698 32-32.3 32h-63.4zM96.3 576c-17.839 0-32.3-14.844-32.3-32 0-17.673 13.698-32 32.3-32h63.4c17.839 0 32.3 14.844 32.3 32 0 17.673-13.698 32-32.3 32h-63.4zM128 768c35.346 0 64 28.654 64 64s-28.654 64-64 64c-35.346 0-64-28.654-64-64s28.654-64 64-64z" />
<glyph unicode="&#xe91c;" glyph-name="new-window" data-tags="new-window" d="M991.891 960c-0.037 0-0.073 0-0.11 0h-383.562c-17.313 0-32.219-14.327-32.219-32 0-17.156 14.242-32 31.81-32h352.19v-351.781c0-17.313 11.081-32.219 24.749-32.219 11.749 0 7.235 0 7.235 0 17.575 0 32.016 14.425 32.016 32.219v383.562c0 0.037 0 0.073 0 0.11s0 0.073 0 0.109c0 8.543-3.577 16.512-9.365 22.361-5.866 5.943-13.836 9.639-22.635 9.639-0.037 0-0.073 0-0.11 0zM1024 512.19v-448.57c0-70.371-57.137-127.62-127.62-127.62h-768.76c-70.371 0-127.62 57.137-127.62 127.62v768.76c0 70.371 57.205 127.62 127.77 127.62h301.385c70.267 0 184.912 0 255.4 0h-428.555v-64h-127.562c-35.588 0-64.438-28.797-64.438-64.438v-767.124c0-35.588 28.797-64.438 64.438-64.438h767.124c35.588 0 64.438 28.797 64.438 64.438v127.562h64v320.19zM256 960h95.7c17.839 0 32.3-14.844 32.3-32 0-17.673-13.698-32-32.3-32h-95.7v64zM960 287.7c0 17.839 14.844 32.3 32 32.3 17.673 0 32-13.698 32-32.3v-95.7h-64v95.7zM828.755 809.983c12.528 12.528 33.179 12.187 45.311 0.056 12.497-12.497 12.23-33.025-0.056-45.311l-452.437-452.437c-12.528-12.528-33.179-12.187-45.311-0.056-12.497 12.497-12.23 33.025 0.056 45.311l452.437 452.437z" />
<glyph unicode="&#xe91d;" glyph-name="image-bottom" data-tags="image-bottom" d="M704.19 576c35.241 0 63.81-28.994 63.81-63.81v-384.38c0-35.241-28.994-63.81-63.81-63.81h-384.38c-35.241 0-63.81 28.994-63.81 63.81v384.38c0 35.241 28.994 63.81 63.81 63.81h384.38zM351.424 832c-17.355 0-31.424-14.844-31.424-32 0-17.673 14.584-32 31.424-32h321.151c17.355 0 31.424 14.844 31.424 32 0 17.673-14.584 32-31.424 32h-321.151zM415.391 704c-17.337 0-31.391-14.844-31.391-32 0-17.673 13.764-32 31.391-32h193.219c17.337 0 31.391 14.844 31.391 32 0 17.673-13.764 32-31.391 32h-193.219z" />
<glyph unicode="&#xe91e;" glyph-name="background-position-center" data-tags="background-position-center" d="M127.62 960h768.76c70.371 0 127.62-57.137 127.62-127.62v-768.76c0-70.371-57.137-127.62-127.62-127.62h-768.76c-70.371 0-127.62 57.137-127.62 127.62v768.76c0 70.371 57.137 127.62 127.62 127.62zM128.438 896c-35.588 0-64.438-28.797-64.438-64.438v-767.124c0-35.588 28.797-64.438 64.438-64.438h767.124c35.588 0 64.438 28.797 64.438 64.438v767.124c0 35.588-28.797 64.438-64.438 64.438h-767.124zM448.6 576h126.801c36.225 0 64.6-28.922 64.6-64.6v-126.801c0-36.225-28.922-64.6-64.6-64.6h-126.801c-36.225 0-64.6 28.922-64.6 64.6v126.801c0 36.225 28.922 64.6 64.6 64.6z" />
<glyph unicode="&#xe91f;" glyph-name="help" data-tags="help" d="M512-64c-282.77 0-512 229.23-512 512s229.23 512 512 512c282.77 0 512-229.23 512-512s-229.23-512-512-512zM512 0c247.424 0 448 200.576 448 448s-200.576 448-448 448c-247.424 0-448-200.576-448-448s200.576-448 448-448zM656.977 586.419c0 69.209-59.343 117.581-156.244 117.581-48.075 0-123.944-19.349-144.225-58.791-3.005-5.953-4.507-12.651-4.507-20.093 0-26.791 20.282-43.163 44.319-43.163 11.268 0 22.535 2.977 31.549 8.93 18.028 11.907 39.061 19.349 61.596 19.349 41.315 0 58.592-19.349 58.592-42.419 0-51.349-109.671-61.767-109.671-150.326 0-45.395 24.789-69.209 53.333-69.209 27.793 0 42.066 20.837 42.066 39.442 0 7.442-2.254 10.419-2.254 20.093 0 61.767 125.446 69.953 125.446 178.605zM560.075 252.279c0 32.744-27.793 60.279-60.845 60.279s-60.845-27.535-60.845-60.279c0-32.744 27.793-60.279 60.845-60.279s60.845 27.535 60.845 60.279v0z" />
<glyph unicode="&#xe920;" glyph-name="plus-invert" data-tags="plus-invert" d="M448 512v128.19c0 35.241 28.407 63.81 64 63.81 35.346 0 64-28.994 64-63.81v-128.19h128.19c35.241 0 63.81-28.407 63.81-64 0-35.346-28.994-64-63.81-64h-128.19v-128.19c0-35.241-28.407-63.81-64-63.81-35.346 0-64 28.994-64 63.81v128.19h-128.19c-35.241 0-63.81 28.407-63.81 64 0 35.346 28.994 64 63.81 64h128.19zM512-64c-282.77 0-512 229.23-512 512s229.23 512 512 512c282.77 0 512-229.23 512-512s-229.23-512-512-512zM512 0c247.424 0 448 200.576 448 448s-200.576 448-448 448c-247.424 0-448-200.576-448-448s200.576-448 448-448z" />
<glyph unicode="&#xe921;" glyph-name="minus-invert" data-tags="minus-invert" d="M512-64c-282.77 0-512 229.23-512 512s229.23 512 512 512c282.77 0 512-229.23 512-512s-229.23-512-512-512zM512 0c247.424 0 448 200.576 448 448s-200.576 448-448 448c-247.424 0-448-200.576-448-448s200.576-448 448-448zM256 448c0 35.346 28.994 64 63.81 64h384.38c35.241 0 63.81-28.407 63.81-64 0-35.346-28.994-64-63.81-64h-384.38c-35.241 0-63.81 28.407-63.81 64z" />
<glyph unicode="&#xe922;" glyph-name="plus" data-tags="plus" d="M448 512v128.19c0 35.241 28.407 63.81 64 63.81 35.346 0 64-28.994 64-63.81v-128.19h128.19c35.241 0 63.81-28.407 63.81-64 0-35.346-28.994-64-63.81-64h-128.19v-128.19c0-35.241-28.407-63.81-64-63.81-35.346 0-64 28.994-64 63.81v128.19h-128.19c-35.241 0-63.81 28.407-63.81 64 0 35.346 28.994 64 63.81 64h128.19zM512-64c282.77 0 512 229.23 512 512s-229.23 512-512 512c-282.77 0-512-229.23-512-512s229.23-512 512-512z" />
<glyph unicode="&#xe923;" glyph-name="minus" data-tags="minus" d="M512-64c282.77 0 512 229.23 512 512s-229.23 512-512 512c-282.77 0-512-229.23-512-512s229.23-512 512-512zM256 448c0 35.346 28.994 64 63.81 64h384.38c35.241 0 63.81-28.407 63.81-64 0-35.346-28.994-64-63.81-64h-384.38c-35.241 0-63.81 28.407-63.81 64z" />
<glyph unicode="&#xe924;" glyph-name="background-position-bottom" data-tags="background-position-bottom" d="M127.62 960h768.76c70.371 0 127.62-57.137 127.62-127.62v-768.76c0-70.371-57.137-127.62-127.62-127.62h-768.76c-70.371 0-127.62 57.137-127.62 127.62v768.76c0 70.371 57.137 127.62 127.62 127.62zM128.438 896c-35.588 0-64.438-28.797-64.438-64.438v-767.124c0-35.588 28.797-64.438 64.438-64.438h767.124c35.588 0 64.438 28.797 64.438 64.438v767.124c0 35.588-28.797 64.438-64.438 64.438h-767.124zM255.705 256h512.589c34.543 0 63.705-28.654 63.705-64 0-35.593-28.522-64-63.705-64h-512.589c-34.543 0-63.705 28.654-63.705 64 0 35.593 28.522 64 63.705 64z" />
<glyph unicode="&#xe925;" glyph-name="background-position-left" data-tags="background-position-left" d="M127.62 960h768.76c70.371 0 127.62-57.137 127.62-127.62v-768.76c0-70.371-57.137-127.62-127.62-127.62h-768.76c-70.371 0-127.62 57.137-127.62 127.62v768.76c0 70.371 57.137 127.62 127.62 127.62zM128.438 896c-35.588 0-64.438-28.797-64.438-64.438v-767.124c0-35.588 28.797-64.438 64.438-64.438h767.124c35.588 0 64.438 28.797 64.438 64.438v767.124c0 35.588-28.797 64.438-64.438 64.438h-767.124zM256 768c35.593 0 64-28.522 64-63.705v-512.589c0-34.543-28.654-63.705-64-63.705-35.593 0-64 28.522-64 63.705v512.589c0 34.543 28.654 63.705 64 63.705z" />
<glyph unicode="&#xe926;" glyph-name="background-position-right" data-tags="background-position-right" d="M127.62 960h768.76c70.371 0 127.62-57.137 127.62-127.62v-768.76c0-70.371-57.137-127.62-127.62-127.62h-768.76c-70.371 0-127.62 57.137-127.62 127.62v768.76c0 70.371 57.137 127.62 127.62 127.62zM128.438 896c-35.588 0-64.438-28.797-64.438-64.438v-767.124c0-35.588 28.797-64.438 64.438-64.438h767.124c35.588 0 64.438 28.797 64.438 64.438v767.124c0 35.588-28.797 64.438-64.438 64.438h-767.124zM768 768c35.593 0 64-28.522 64-63.705v-512.589c0-34.543-28.654-63.705-64-63.705-35.593 0-64 28.522-64 63.705v512.589c0 34.543 28.654 63.705 64 63.705z" />
<glyph unicode="&#xe927;" glyph-name="background-position-top" data-tags="background-position-top" d="M127.62 960h768.76c70.371 0 127.62-57.137 127.62-127.62v-768.76c0-70.371-57.137-127.62-127.62-127.62h-768.76c-70.371 0-127.62 57.137-127.62 127.62v768.76c0 70.371 57.137 127.62 127.62 127.62zM128.438 896c-35.588 0-64.438-28.797-64.438-64.438v-767.124c0-35.588 28.797-64.438 64.438-64.438h767.124c35.588 0 64.438 28.797 64.438 64.438v767.124c0 35.588-28.797 64.438-64.438 64.438h-767.124zM255.705 768h512.589c34.543 0 63.705-28.654 63.705-64 0-35.593-28.522-64-63.705-64h-512.589c-34.543 0-63.705 28.654-63.705 64 0 35.593 28.522 64 63.705 64z" />
</font>
</defs>
</svg>
